G04 #@! TF.GenerationSoftware,KiCad,Pcbnew,(6.0.7-1)-1*
G04 #@! TF.CreationDate,2022-11-08T18:33:53+08:00*
G04 #@! TF.ProjectId,sharp_dsi,73686172-705f-4647-9369-2e6b69636164,rev?*
G04 #@! TF.SameCoordinates,Original*
G04 #@! TF.FileFunction,Soldermask,Bot*
G04 #@! TF.FilePolarity,Negative*
%FSLAX46Y46*%
G04 Gerber Fmt 4.6, Leading zero omitted, Abs format (unit mm)*
G04 Created by KiCad (PCBNEW (6.0.7-1)-1) date 2022-11-08 18:33:53*
%MOMM*%
%LPD*%
G01*
G04 APERTURE LIST*
%ADD10R,1.700000X1.700000*%
%ADD11O,1.700000X1.700000*%
%ADD12C,0.650000*%
%ADD13O,1.000000X1.600000*%
%ADD14O,1.000000X2.100000*%
%ADD15C,1.600000*%
G04 APERTURE END LIST*
D10*
X94767400Y-61183600D03*
D11*
X94767400Y-58643600D03*
X94767400Y-56103600D03*
X94767400Y-53563600D03*
X94767400Y-51023600D03*
D10*
X134716600Y-95626000D03*
D11*
X134716600Y-98166000D03*
X132176600Y-95626000D03*
X132176600Y-98166000D03*
X129636600Y-95626000D03*
X129636600Y-98166000D03*
X127096600Y-95626000D03*
X127096600Y-98166000D03*
X124556600Y-95626000D03*
X124556600Y-98166000D03*
X122016600Y-95626000D03*
X122016600Y-98166000D03*
X119476600Y-95626000D03*
X119476600Y-98166000D03*
X116936600Y-95626000D03*
X116936600Y-98166000D03*
X114396600Y-95626000D03*
X114396600Y-98166000D03*
X111856600Y-95626000D03*
X111856600Y-98166000D03*
X109316600Y-95626000D03*
X109316600Y-98166000D03*
X106776600Y-95626000D03*
X106776600Y-98166000D03*
X104236600Y-95626000D03*
X104236600Y-98166000D03*
X101696600Y-95626000D03*
X101696600Y-98166000D03*
X99156600Y-95626000D03*
X99156600Y-98166000D03*
D12*
X94863400Y-92906900D03*
X89083400Y-92906900D03*
D13*
X96293400Y-96556900D03*
D14*
X96293400Y-92376900D03*
X87653400Y-92376900D03*
D13*
X87653400Y-96556900D03*
D10*
X88188800Y-82921000D03*
D11*
X88188800Y-80381000D03*
X88188800Y-77841000D03*
X88188800Y-75301000D03*
D10*
X88265000Y-64414400D03*
D11*
X88265000Y-66954400D03*
X88265000Y-69494400D03*
X88265000Y-72034400D03*
D15*
X98171000Y-51160600D03*
X98171000Y-56240600D03*
M02*
