G04 #@! TF.GenerationSoftware,KiCad,Pcbnew,(6.0.7-1)-1*
G04 #@! TF.CreationDate,2022-11-08T18:33:53+08:00*
G04 #@! TF.ProjectId,sharp_dsi,73686172-705f-4647-9369-2e6b69636164,rev?*
G04 #@! TF.SameCoordinates,Original*
G04 #@! TF.FileFunction,Legend,Top*
G04 #@! TF.FilePolarity,Positive*
%FSLAX46Y46*%
G04 Gerber Fmt 4.6, Leading zero omitted, Abs format (unit mm)*
G04 Created by KiCad (PCBNEW (6.0.7-1)-1) date 2022-11-08 18:33:53*
%MOMM*%
%LPD*%
G01*
G04 APERTURE LIST*
G04 Aperture macros list*
%AMRoundRect*
0 Rectangle with rounded corners*
0 $1 Rounding radius*
0 $2 $3 $4 $5 $6 $7 $8 $9 X,Y pos of 4 corners*
0 Add a 4 corners polygon primitive as box body*
4,1,4,$2,$3,$4,$5,$6,$7,$8,$9,$2,$3,0*
0 Add four circle primitives for the rounded corners*
1,1,$1+$1,$2,$3*
1,1,$1+$1,$4,$5*
1,1,$1+$1,$6,$7*
1,1,$1+$1,$8,$9*
0 Add four rect primitives between the rounded corners*
20,1,$1+$1,$2,$3,$4,$5,0*
20,1,$1+$1,$4,$5,$6,$7,0*
20,1,$1+$1,$6,$7,$8,$9,0*
20,1,$1+$1,$8,$9,$2,$3,0*%
%AMFreePoly0*
4,1,5,0.762000,-0.762000,-0.762000,-0.762000,-0.762000,0.762000,0.762000,0.762000,0.762000,-0.762000,0.762000,-0.762000,$1*%
G04 Aperture macros list end*
%ADD10C,0.150000*%
%ADD11C,0.203200*%
%ADD12C,0.127000*%
%ADD13C,0.120000*%
%ADD14C,0.100000*%
%ADD15RoundRect,0.200000X0.275000X-0.200000X0.275000X0.200000X-0.275000X0.200000X-0.275000X-0.200000X0*%
%ADD16RoundRect,0.140000X-0.140000X-0.170000X0.140000X-0.170000X0.140000X0.170000X-0.140000X0.170000X0*%
%ADD17RoundRect,0.140000X0.140000X0.170000X-0.140000X0.170000X-0.140000X-0.170000X0.140000X-0.170000X0*%
%ADD18R,0.350000X1.500000*%
%ADD19RoundRect,0.200000X-0.200000X-0.275000X0.200000X-0.275000X0.200000X0.275000X-0.200000X0.275000X0*%
%ADD20RoundRect,0.150000X-0.825000X-0.150000X0.825000X-0.150000X0.825000X0.150000X-0.825000X0.150000X0*%
%ADD21RoundRect,0.200000X0.200000X0.275000X-0.200000X0.275000X-0.200000X-0.275000X0.200000X-0.275000X0*%
%ADD22R,1.473200X0.355600*%
%ADD23R,1.700000X1.700000*%
%ADD24O,1.700000X1.700000*%
%ADD25RoundRect,0.140000X-0.170000X0.140000X-0.170000X-0.140000X0.170000X-0.140000X0.170000X0.140000X0*%
%ADD26R,2.400000X2.000000*%
%ADD27C,0.650000*%
%ADD28R,0.600000X2.000000*%
%ADD29R,0.300000X2.000000*%
%ADD30R,0.600000X1.450000*%
%ADD31O,1.000000X1.600000*%
%ADD32O,1.000000X2.100000*%
%ADD33R,0.431800X1.193800*%
%ADD34FreePoly0,0.000000*%
%ADD35R,0.482600X1.193800*%
%ADD36RoundRect,0.140000X0.170000X-0.140000X0.170000X0.140000X-0.170000X0.140000X-0.170000X-0.140000X0*%
%ADD37RoundRect,0.150000X0.150000X-0.587500X0.150000X0.587500X-0.150000X0.587500X-0.150000X-0.587500X0*%
%ADD38R,0.203200X0.762000*%
%ADD39R,0.762000X0.203200*%
%ADD40R,4.699000X4.699000*%
%ADD41R,1.500000X2.000000*%
%ADD42R,3.800000X2.000000*%
%ADD43C,1.600000*%
G04 APERTURE END LIST*
D10*
X126974600Y-61569600D02*
X125476000Y-62966600D01*
X90246200Y-52933600D02*
X91643200Y-54432200D01*
X114731800Y-64490600D02*
X134924800Y-64439800D01*
X114731800Y-58902600D02*
X114731800Y-64490600D01*
X127000000Y-61620400D02*
X125349000Y-60172600D01*
X92760800Y-62915800D02*
X86385400Y-62915800D01*
X90297000Y-52908200D02*
X88849200Y-54559200D01*
X120370600Y-61620400D02*
X127000000Y-61620400D01*
X90297000Y-59537600D02*
X90297000Y-52908200D01*
D11*
X90504433Y-73160466D02*
X90546766Y-73033466D01*
X90546766Y-72821800D01*
X90504433Y-72737133D01*
X90462100Y-72694800D01*
X90377433Y-72652466D01*
X90292766Y-72652466D01*
X90208100Y-72694800D01*
X90165766Y-72737133D01*
X90123433Y-72821800D01*
X90081100Y-72991133D01*
X90038766Y-73075800D01*
X89996433Y-73118133D01*
X89911766Y-73160466D01*
X89827100Y-73160466D01*
X89742433Y-73118133D01*
X89700100Y-73075800D01*
X89657766Y-72991133D01*
X89657766Y-72779466D01*
X89700100Y-72652466D01*
X89657766Y-72356133D02*
X90546766Y-72144466D01*
X89911766Y-71975133D01*
X90546766Y-71805800D01*
X89657766Y-71594133D01*
X90546766Y-71255466D02*
X89657766Y-71255466D01*
X89657766Y-71043800D01*
X89700100Y-70916800D01*
X89784766Y-70832133D01*
X89869433Y-70789800D01*
X90038766Y-70747466D01*
X90165766Y-70747466D01*
X90335100Y-70789800D01*
X90419766Y-70832133D01*
X90504433Y-70916800D01*
X90546766Y-71043800D01*
X90546766Y-71255466D01*
X90885433Y-70112466D02*
X90843100Y-70154800D01*
X90716100Y-70239466D01*
X90631433Y-70281800D01*
X90504433Y-70324133D01*
X90292766Y-70366466D01*
X90123433Y-70366466D01*
X89911766Y-70324133D01*
X89784766Y-70281800D01*
X89700100Y-70239466D01*
X89573100Y-70154800D01*
X89530766Y-70112466D01*
X90462100Y-69265800D02*
X90504433Y-69308133D01*
X90546766Y-69435133D01*
X90546766Y-69519800D01*
X90504433Y-69646800D01*
X90419766Y-69731466D01*
X90335100Y-69773800D01*
X90165766Y-69816133D01*
X90038766Y-69816133D01*
X89869433Y-69773800D01*
X89784766Y-69731466D01*
X89700100Y-69646800D01*
X89657766Y-69519800D01*
X89657766Y-69435133D01*
X89700100Y-69308133D01*
X89742433Y-69265800D01*
X90546766Y-68884800D02*
X89657766Y-68884800D01*
X89657766Y-68673133D01*
X89700100Y-68546133D01*
X89784766Y-68461466D01*
X89869433Y-68419133D01*
X90038766Y-68376800D01*
X90165766Y-68376800D01*
X90335100Y-68419133D01*
X90419766Y-68461466D01*
X90504433Y-68546133D01*
X90546766Y-68673133D01*
X90546766Y-68884800D01*
X89700100Y-67530133D02*
X89657766Y-67614800D01*
X89657766Y-67741800D01*
X89700100Y-67868800D01*
X89784766Y-67953466D01*
X89869433Y-67995800D01*
X90038766Y-68038133D01*
X90165766Y-68038133D01*
X90335100Y-67995800D01*
X90419766Y-67953466D01*
X90504433Y-67868800D01*
X90546766Y-67741800D01*
X90546766Y-67657133D01*
X90504433Y-67530133D01*
X90462100Y-67487800D01*
X90165766Y-67487800D01*
X90165766Y-67657133D01*
X89657766Y-67233800D02*
X90546766Y-66937466D01*
X89657766Y-66641133D01*
X90885433Y-66429466D02*
X90843100Y-66387133D01*
X90716100Y-66302466D01*
X90631433Y-66260133D01*
X90504433Y-66217800D01*
X90292766Y-66175466D01*
X90123433Y-66175466D01*
X89911766Y-66217800D01*
X89784766Y-66260133D01*
X89700100Y-66302466D01*
X89573100Y-66387133D01*
X89530766Y-66429466D01*
X89657766Y-83718400D02*
X89657766Y-84141733D01*
X90081100Y-84184066D01*
X90038766Y-84141733D01*
X89996433Y-84057066D01*
X89996433Y-83845400D01*
X90038766Y-83760733D01*
X90081100Y-83718400D01*
X90165766Y-83676066D01*
X90377433Y-83676066D01*
X90462100Y-83718400D01*
X90504433Y-83760733D01*
X90546766Y-83845400D01*
X90546766Y-84057066D01*
X90504433Y-84141733D01*
X90462100Y-84184066D01*
X89954100Y-83379733D02*
X90546766Y-83168066D01*
X89954100Y-82956400D01*
X89657766Y-81517066D02*
X89657766Y-81940400D01*
X90081100Y-81982733D01*
X90038766Y-81940400D01*
X89996433Y-81855733D01*
X89996433Y-81644066D01*
X90038766Y-81559400D01*
X90081100Y-81517066D01*
X90165766Y-81474733D01*
X90377433Y-81474733D01*
X90462100Y-81517066D01*
X90504433Y-81559400D01*
X90546766Y-81644066D01*
X90546766Y-81855733D01*
X90504433Y-81940400D01*
X90462100Y-81982733D01*
X89954100Y-81178400D02*
X90546766Y-80966733D01*
X89954100Y-80755066D01*
X89657766Y-79823733D02*
X89657766Y-79273400D01*
X89996433Y-79569733D01*
X89996433Y-79442733D01*
X90038766Y-79358066D01*
X90081100Y-79315733D01*
X90165766Y-79273400D01*
X90377433Y-79273400D01*
X90462100Y-79315733D01*
X90504433Y-79358066D01*
X90546766Y-79442733D01*
X90546766Y-79696733D01*
X90504433Y-79781400D01*
X90462100Y-79823733D01*
X89954100Y-78977066D02*
X90546766Y-78765400D01*
X89954100Y-78553733D01*
X89657766Y-78299733D02*
X89657766Y-77749400D01*
X89996433Y-78045733D01*
X89996433Y-77918733D01*
X90038766Y-77834066D01*
X90081100Y-77791733D01*
X90165766Y-77749400D01*
X90377433Y-77749400D01*
X90462100Y-77791733D01*
X90504433Y-77834066D01*
X90546766Y-77918733D01*
X90546766Y-78172733D01*
X90504433Y-78257400D01*
X90462100Y-78299733D01*
X89700100Y-76225400D02*
X89657766Y-76310066D01*
X89657766Y-76437066D01*
X89700100Y-76564066D01*
X89784766Y-76648733D01*
X89869433Y-76691066D01*
X90038766Y-76733400D01*
X90165766Y-76733400D01*
X90335100Y-76691066D01*
X90419766Y-76648733D01*
X90504433Y-76564066D01*
X90546766Y-76437066D01*
X90546766Y-76352400D01*
X90504433Y-76225400D01*
X90462100Y-76183066D01*
X90165766Y-76183066D01*
X90165766Y-76352400D01*
X90546766Y-75802066D02*
X89657766Y-75802066D01*
X90546766Y-75294066D01*
X89657766Y-75294066D01*
X90546766Y-74870733D02*
X89657766Y-74870733D01*
X89657766Y-74659066D01*
X89700100Y-74532066D01*
X89784766Y-74447400D01*
X89869433Y-74405066D01*
X90038766Y-74362733D01*
X90165766Y-74362733D01*
X90335100Y-74405066D01*
X90419766Y-74447400D01*
X90504433Y-74532066D01*
X90546766Y-74659066D01*
X90546766Y-74870733D01*
X95920076Y-88765500D02*
X95968457Y-88717120D01*
X96065219Y-88668739D01*
X96307123Y-88668739D01*
X96403885Y-88717120D01*
X96452266Y-88765500D01*
X96500647Y-88862262D01*
X96500647Y-88959024D01*
X96452266Y-89104167D01*
X95871695Y-89684739D01*
X96500647Y-89684739D01*
X97129600Y-88668739D02*
X97226361Y-88668739D01*
X97323123Y-88717120D01*
X97371504Y-88765500D01*
X97419885Y-88862262D01*
X97468266Y-89055786D01*
X97468266Y-89297691D01*
X97419885Y-89491215D01*
X97371504Y-89587977D01*
X97323123Y-89636358D01*
X97226361Y-89684739D01*
X97129600Y-89684739D01*
X97032838Y-89636358D01*
X96984457Y-89587977D01*
X96936076Y-89491215D01*
X96887695Y-89297691D01*
X96887695Y-89055786D01*
X96936076Y-88862262D01*
X96984457Y-88765500D01*
X97032838Y-88717120D01*
X97129600Y-88668739D01*
X97855314Y-88765500D02*
X97903695Y-88717120D01*
X98000457Y-88668739D01*
X98242361Y-88668739D01*
X98339123Y-88717120D01*
X98387504Y-88765500D01*
X98435885Y-88862262D01*
X98435885Y-88959024D01*
X98387504Y-89104167D01*
X97806933Y-89684739D01*
X98435885Y-89684739D01*
X98822933Y-88765500D02*
X98871314Y-88717120D01*
X98968076Y-88668739D01*
X99209980Y-88668739D01*
X99306742Y-88717120D01*
X99355123Y-88765500D01*
X99403504Y-88862262D01*
X99403504Y-88959024D01*
X99355123Y-89104167D01*
X98774552Y-89684739D01*
X99403504Y-89684739D01*
X99838933Y-89587977D02*
X99887314Y-89636358D01*
X99838933Y-89684739D01*
X99790552Y-89636358D01*
X99838933Y-89587977D01*
X99838933Y-89684739D01*
X100854933Y-89684739D02*
X100274361Y-89684739D01*
X100564647Y-89684739D02*
X100564647Y-88668739D01*
X100467885Y-88813881D01*
X100371123Y-88910643D01*
X100274361Y-88959024D01*
X101822552Y-89684739D02*
X101241980Y-89684739D01*
X101532266Y-89684739D02*
X101532266Y-88668739D01*
X101435504Y-88813881D01*
X101338742Y-88910643D01*
X101241980Y-88959024D01*
X102257980Y-89587977D02*
X102306361Y-89636358D01*
X102257980Y-89684739D01*
X102209600Y-89636358D01*
X102257980Y-89587977D01*
X102257980Y-89684739D01*
X102886933Y-89104167D02*
X102790171Y-89055786D01*
X102741790Y-89007405D01*
X102693409Y-88910643D01*
X102693409Y-88862262D01*
X102741790Y-88765500D01*
X102790171Y-88717120D01*
X102886933Y-88668739D01*
X103080457Y-88668739D01*
X103177219Y-88717120D01*
X103225600Y-88765500D01*
X103273980Y-88862262D01*
X103273980Y-88910643D01*
X103225600Y-89007405D01*
X103177219Y-89055786D01*
X103080457Y-89104167D01*
X102886933Y-89104167D01*
X102790171Y-89152548D01*
X102741790Y-89200929D01*
X102693409Y-89297691D01*
X102693409Y-89491215D01*
X102741790Y-89587977D01*
X102790171Y-89636358D01*
X102886933Y-89684739D01*
X103080457Y-89684739D01*
X103177219Y-89636358D01*
X103225600Y-89587977D01*
X103273980Y-89491215D01*
X103273980Y-89297691D01*
X103225600Y-89200929D01*
X103177219Y-89152548D01*
X103080457Y-89104167D01*
X104386742Y-89007405D02*
X104628647Y-89684739D01*
X104870552Y-89007405D01*
X105644647Y-89636358D02*
X105547885Y-89684739D01*
X105354361Y-89684739D01*
X105257600Y-89636358D01*
X105209219Y-89539596D01*
X105209219Y-89152548D01*
X105257600Y-89055786D01*
X105354361Y-89007405D01*
X105547885Y-89007405D01*
X105644647Y-89055786D01*
X105693028Y-89152548D01*
X105693028Y-89249310D01*
X105209219Y-89346072D01*
X106128457Y-89684739D02*
X106128457Y-89007405D01*
X106128457Y-89200929D02*
X106176838Y-89104167D01*
X106225219Y-89055786D01*
X106321980Y-89007405D01*
X106418742Y-89007405D01*
X107725028Y-88668739D02*
X107821790Y-88668739D01*
X107918552Y-88717120D01*
X107966933Y-88765500D01*
X108015314Y-88862262D01*
X108063695Y-89055786D01*
X108063695Y-89297691D01*
X108015314Y-89491215D01*
X107966933Y-89587977D01*
X107918552Y-89636358D01*
X107821790Y-89684739D01*
X107725028Y-89684739D01*
X107628266Y-89636358D01*
X107579885Y-89587977D01*
X107531504Y-89491215D01*
X107483123Y-89297691D01*
X107483123Y-89055786D01*
X107531504Y-88862262D01*
X107579885Y-88765500D01*
X107628266Y-88717120D01*
X107725028Y-88668739D01*
X108499123Y-89587977D02*
X108547504Y-89636358D01*
X108499123Y-89684739D01*
X108450742Y-89636358D01*
X108499123Y-89587977D01*
X108499123Y-89684739D01*
X108934552Y-88765500D02*
X108982933Y-88717120D01*
X109079695Y-88668739D01*
X109321600Y-88668739D01*
X109418361Y-88717120D01*
X109466742Y-88765500D01*
X109515123Y-88862262D01*
X109515123Y-88959024D01*
X109466742Y-89104167D01*
X108886171Y-89684739D01*
X109515123Y-89684739D01*
X100733980Y-90643165D02*
X100733980Y-91514022D01*
X100685600Y-91610784D01*
X100588838Y-91659165D01*
X100540457Y-91659165D01*
X100733980Y-90304499D02*
X100685600Y-90352880D01*
X100733980Y-90401260D01*
X100782361Y-90352880D01*
X100733980Y-90304499D01*
X100733980Y-90401260D01*
X101362933Y-91320499D02*
X101266171Y-91272118D01*
X101217790Y-91175356D01*
X101217790Y-90304499D01*
X101653219Y-90643165D02*
X101895123Y-91320499D01*
X102137028Y-90643165D02*
X101895123Y-91320499D01*
X101798361Y-91562403D01*
X101749980Y-91610784D01*
X101653219Y-91659165D01*
X102427314Y-90643165D02*
X102620838Y-91320499D01*
X102814361Y-90836689D01*
X103007885Y-91320499D01*
X103201409Y-90643165D01*
X103491695Y-91320499D02*
X104023885Y-90643165D01*
X103491695Y-90643165D02*
X104023885Y-91320499D01*
X104314171Y-90643165D02*
X104556076Y-91320499D01*
X104797980Y-90643165D02*
X104556076Y-91320499D01*
X104459314Y-91562403D01*
X104410933Y-91610784D01*
X104314171Y-91659165D01*
D12*
X123369009Y-72061009D02*
X122861009Y-72061009D01*
X122861009Y-71940057D01*
X122885200Y-71867485D01*
X122933580Y-71819104D01*
X122981961Y-71794914D01*
X123078723Y-71770723D01*
X123151295Y-71770723D01*
X123248057Y-71794914D01*
X123296438Y-71819104D01*
X123344819Y-71867485D01*
X123369009Y-71940057D01*
X123369009Y-72061009D01*
X123344819Y-71577200D02*
X123369009Y-71504628D01*
X123369009Y-71383676D01*
X123344819Y-71335295D01*
X123320628Y-71311104D01*
X123272247Y-71286914D01*
X123223866Y-71286914D01*
X123175485Y-71311104D01*
X123151295Y-71335295D01*
X123127104Y-71383676D01*
X123102914Y-71480438D01*
X123078723Y-71528819D01*
X123054533Y-71553009D01*
X123006152Y-71577200D01*
X122957771Y-71577200D01*
X122909390Y-71553009D01*
X122885200Y-71528819D01*
X122861009Y-71480438D01*
X122861009Y-71359485D01*
X122885200Y-71286914D01*
X123369009Y-71069200D02*
X122861009Y-71069200D01*
X122861009Y-70730533D02*
X122861009Y-70682152D01*
X122885200Y-70633771D01*
X122909390Y-70609580D01*
X122957771Y-70585390D01*
X123054533Y-70561200D01*
X123175485Y-70561200D01*
X123272247Y-70585390D01*
X123320628Y-70609580D01*
X123344819Y-70633771D01*
X123369009Y-70682152D01*
X123369009Y-70730533D01*
X123344819Y-70778914D01*
X123320628Y-70803104D01*
X123272247Y-70827295D01*
X123175485Y-70851485D01*
X123054533Y-70851485D01*
X122957771Y-70827295D01*
X122909390Y-70803104D01*
X122885200Y-70778914D01*
X122861009Y-70730533D01*
D11*
X98873733Y-87939638D02*
X99018876Y-87988019D01*
X99260780Y-87988019D01*
X99357542Y-87939638D01*
X99405923Y-87891257D01*
X99454304Y-87794495D01*
X99454304Y-87697733D01*
X99405923Y-87600971D01*
X99357542Y-87552590D01*
X99260780Y-87504209D01*
X99067257Y-87455828D01*
X98970495Y-87407447D01*
X98922114Y-87359066D01*
X98873733Y-87262304D01*
X98873733Y-87165542D01*
X98922114Y-87068780D01*
X98970495Y-87020400D01*
X99067257Y-86972019D01*
X99309161Y-86972019D01*
X99454304Y-87020400D01*
X99889733Y-87988019D02*
X99889733Y-86972019D01*
X99889733Y-87455828D02*
X100470304Y-87455828D01*
X100470304Y-87988019D02*
X100470304Y-86972019D01*
X100905733Y-87697733D02*
X101389542Y-87697733D01*
X100808971Y-87988019D02*
X101147638Y-86972019D01*
X101486304Y-87988019D01*
X102405542Y-87988019D02*
X102066876Y-87504209D01*
X101824971Y-87988019D02*
X101824971Y-86972019D01*
X102212019Y-86972019D01*
X102308780Y-87020400D01*
X102357161Y-87068780D01*
X102405542Y-87165542D01*
X102405542Y-87310685D01*
X102357161Y-87407447D01*
X102308780Y-87455828D01*
X102212019Y-87504209D01*
X101824971Y-87504209D01*
X102840971Y-87988019D02*
X102840971Y-86972019D01*
X103228019Y-86972019D01*
X103324780Y-87020400D01*
X103373161Y-87068780D01*
X103421542Y-87165542D01*
X103421542Y-87310685D01*
X103373161Y-87407447D01*
X103324780Y-87455828D01*
X103228019Y-87504209D01*
X102840971Y-87504209D01*
X103615066Y-88084780D02*
X104389161Y-88084780D01*
X104631066Y-87988019D02*
X104631066Y-86972019D01*
X104872971Y-86972019D01*
X105018114Y-87020400D01*
X105114876Y-87117161D01*
X105163257Y-87213923D01*
X105211638Y-87407447D01*
X105211638Y-87552590D01*
X105163257Y-87746114D01*
X105114876Y-87842876D01*
X105018114Y-87939638D01*
X104872971Y-87988019D01*
X104631066Y-87988019D01*
X105598685Y-87939638D02*
X105743828Y-87988019D01*
X105985733Y-87988019D01*
X106082495Y-87939638D01*
X106130876Y-87891257D01*
X106179257Y-87794495D01*
X106179257Y-87697733D01*
X106130876Y-87600971D01*
X106082495Y-87552590D01*
X105985733Y-87504209D01*
X105792209Y-87455828D01*
X105695447Y-87407447D01*
X105647066Y-87359066D01*
X105598685Y-87262304D01*
X105598685Y-87165542D01*
X105647066Y-87068780D01*
X105695447Y-87020400D01*
X105792209Y-86972019D01*
X106034114Y-86972019D01*
X106179257Y-87020400D01*
X106614685Y-87988019D02*
X106614685Y-86972019D01*
D12*
X121032209Y-72073104D02*
X120524209Y-72073104D01*
X120524209Y-71952152D01*
X120548400Y-71879580D01*
X120596780Y-71831200D01*
X120645161Y-71807009D01*
X120741923Y-71782819D01*
X120814495Y-71782819D01*
X120911257Y-71807009D01*
X120959638Y-71831200D01*
X121008019Y-71879580D01*
X121032209Y-71952152D01*
X121032209Y-72073104D01*
X121008019Y-71589295D02*
X121032209Y-71516723D01*
X121032209Y-71395771D01*
X121008019Y-71347390D01*
X120983828Y-71323200D01*
X120935447Y-71299009D01*
X120887066Y-71299009D01*
X120838685Y-71323200D01*
X120814495Y-71347390D01*
X120790304Y-71395771D01*
X120766114Y-71492533D01*
X120741923Y-71540914D01*
X120717733Y-71565104D01*
X120669352Y-71589295D01*
X120620971Y-71589295D01*
X120572590Y-71565104D01*
X120548400Y-71540914D01*
X120524209Y-71492533D01*
X120524209Y-71371580D01*
X120548400Y-71299009D01*
X121032209Y-71081295D02*
X120524209Y-71081295D01*
X120983828Y-70549104D02*
X121008019Y-70573295D01*
X121032209Y-70645866D01*
X121032209Y-70694247D01*
X121008019Y-70766819D01*
X120959638Y-70815200D01*
X120911257Y-70839390D01*
X120814495Y-70863580D01*
X120741923Y-70863580D01*
X120645161Y-70839390D01*
X120596780Y-70815200D01*
X120548400Y-70766819D01*
X120524209Y-70694247D01*
X120524209Y-70645866D01*
X120548400Y-70573295D01*
X120572590Y-70549104D01*
X118593809Y-72061009D02*
X118085809Y-72061009D01*
X118085809Y-71940057D01*
X118110000Y-71867485D01*
X118158380Y-71819104D01*
X118206761Y-71794914D01*
X118303523Y-71770723D01*
X118376095Y-71770723D01*
X118472857Y-71794914D01*
X118521238Y-71819104D01*
X118569619Y-71867485D01*
X118593809Y-71940057D01*
X118593809Y-72061009D01*
X118569619Y-71577200D02*
X118593809Y-71504628D01*
X118593809Y-71383676D01*
X118569619Y-71335295D01*
X118545428Y-71311104D01*
X118497047Y-71286914D01*
X118448666Y-71286914D01*
X118400285Y-71311104D01*
X118376095Y-71335295D01*
X118351904Y-71383676D01*
X118327714Y-71480438D01*
X118303523Y-71528819D01*
X118279333Y-71553009D01*
X118230952Y-71577200D01*
X118182571Y-71577200D01*
X118134190Y-71553009D01*
X118110000Y-71528819D01*
X118085809Y-71480438D01*
X118085809Y-71359485D01*
X118110000Y-71286914D01*
X118593809Y-71069200D02*
X118085809Y-71069200D01*
X118085809Y-70875676D02*
X118085809Y-70561200D01*
X118279333Y-70730533D01*
X118279333Y-70657961D01*
X118303523Y-70609580D01*
X118327714Y-70585390D01*
X118376095Y-70561200D01*
X118497047Y-70561200D01*
X118545428Y-70585390D01*
X118569619Y-70609580D01*
X118593809Y-70657961D01*
X118593809Y-70803104D01*
X118569619Y-70851485D01*
X118545428Y-70875676D01*
X119813009Y-72010209D02*
X119305009Y-72010209D01*
X119305009Y-71889257D01*
X119329200Y-71816685D01*
X119377580Y-71768304D01*
X119425961Y-71744114D01*
X119522723Y-71719923D01*
X119595295Y-71719923D01*
X119692057Y-71744114D01*
X119740438Y-71768304D01*
X119788819Y-71816685D01*
X119813009Y-71889257D01*
X119813009Y-72010209D01*
X119788819Y-71526400D02*
X119813009Y-71453828D01*
X119813009Y-71332876D01*
X119788819Y-71284495D01*
X119764628Y-71260304D01*
X119716247Y-71236114D01*
X119667866Y-71236114D01*
X119619485Y-71260304D01*
X119595295Y-71284495D01*
X119571104Y-71332876D01*
X119546914Y-71429638D01*
X119522723Y-71478019D01*
X119498533Y-71502209D01*
X119450152Y-71526400D01*
X119401771Y-71526400D01*
X119353390Y-71502209D01*
X119329200Y-71478019D01*
X119305009Y-71429638D01*
X119305009Y-71308685D01*
X119329200Y-71236114D01*
X119813009Y-71018400D02*
X119305009Y-71018400D01*
X119353390Y-70800685D02*
X119329200Y-70776495D01*
X119305009Y-70728114D01*
X119305009Y-70607161D01*
X119329200Y-70558780D01*
X119353390Y-70534590D01*
X119401771Y-70510400D01*
X119450152Y-70510400D01*
X119522723Y-70534590D01*
X119813009Y-70824876D01*
X119813009Y-70510400D01*
X122200609Y-72061009D02*
X121692609Y-72061009D01*
X121692609Y-71940057D01*
X121716800Y-71867485D01*
X121765180Y-71819104D01*
X121813561Y-71794914D01*
X121910323Y-71770723D01*
X121982895Y-71770723D01*
X122079657Y-71794914D01*
X122128038Y-71819104D01*
X122176419Y-71867485D01*
X122200609Y-71940057D01*
X122200609Y-72061009D01*
X122176419Y-71577200D02*
X122200609Y-71504628D01*
X122200609Y-71383676D01*
X122176419Y-71335295D01*
X122152228Y-71311104D01*
X122103847Y-71286914D01*
X122055466Y-71286914D01*
X122007085Y-71311104D01*
X121982895Y-71335295D01*
X121958704Y-71383676D01*
X121934514Y-71480438D01*
X121910323Y-71528819D01*
X121886133Y-71553009D01*
X121837752Y-71577200D01*
X121789371Y-71577200D01*
X121740990Y-71553009D01*
X121716800Y-71528819D01*
X121692609Y-71480438D01*
X121692609Y-71359485D01*
X121716800Y-71286914D01*
X122200609Y-71069200D02*
X121692609Y-71069200D01*
X122200609Y-70561200D02*
X122200609Y-70851485D01*
X122200609Y-70706342D02*
X121692609Y-70706342D01*
X121765180Y-70754723D01*
X121813561Y-70803104D01*
X121837752Y-70851485D01*
D10*
X94940380Y-86653666D02*
X94464190Y-86987000D01*
X94940380Y-87225095D02*
X93940380Y-87225095D01*
X93940380Y-86844142D01*
X93988000Y-86748904D01*
X94035619Y-86701285D01*
X94130857Y-86653666D01*
X94273714Y-86653666D01*
X94368952Y-86701285D01*
X94416571Y-86748904D01*
X94464190Y-86844142D01*
X94464190Y-87225095D01*
X94035619Y-86272714D02*
X93988000Y-86225095D01*
X93940380Y-86129857D01*
X93940380Y-85891761D01*
X93988000Y-85796523D01*
X94035619Y-85748904D01*
X94130857Y-85701285D01*
X94226095Y-85701285D01*
X94368952Y-85748904D01*
X94940380Y-86320333D01*
X94940380Y-85701285D01*
X101388942Y-64932342D02*
X101341323Y-64979961D01*
X101198466Y-65027580D01*
X101103228Y-65027580D01*
X100960371Y-64979961D01*
X100865133Y-64884723D01*
X100817514Y-64789485D01*
X100769895Y-64599009D01*
X100769895Y-64456152D01*
X100817514Y-64265676D01*
X100865133Y-64170438D01*
X100960371Y-64075200D01*
X101103228Y-64027580D01*
X101198466Y-64027580D01*
X101341323Y-64075200D01*
X101388942Y-64122819D01*
X102341323Y-65027580D02*
X101769895Y-65027580D01*
X102055609Y-65027580D02*
X102055609Y-64027580D01*
X101960371Y-64170438D01*
X101865133Y-64265676D01*
X101769895Y-64313295D01*
X102722276Y-64122819D02*
X102769895Y-64075200D01*
X102865133Y-64027580D01*
X103103228Y-64027580D01*
X103198466Y-64075200D01*
X103246085Y-64122819D01*
X103293704Y-64218057D01*
X103293704Y-64313295D01*
X103246085Y-64456152D01*
X102674657Y-65027580D01*
X103293704Y-65027580D01*
X92393533Y-83076542D02*
X92345914Y-83124161D01*
X92203057Y-83171780D01*
X92107819Y-83171780D01*
X91964961Y-83124161D01*
X91869723Y-83028923D01*
X91822104Y-82933685D01*
X91774485Y-82743209D01*
X91774485Y-82600352D01*
X91822104Y-82409876D01*
X91869723Y-82314638D01*
X91964961Y-82219400D01*
X92107819Y-82171780D01*
X92203057Y-82171780D01*
X92345914Y-82219400D01*
X92393533Y-82267019D01*
X92964961Y-82600352D02*
X92869723Y-82552733D01*
X92822104Y-82505114D01*
X92774485Y-82409876D01*
X92774485Y-82362257D01*
X92822104Y-82267019D01*
X92869723Y-82219400D01*
X92964961Y-82171780D01*
X93155438Y-82171780D01*
X93250676Y-82219400D01*
X93298295Y-82267019D01*
X93345914Y-82362257D01*
X93345914Y-82409876D01*
X93298295Y-82505114D01*
X93250676Y-82552733D01*
X93155438Y-82600352D01*
X92964961Y-82600352D01*
X92869723Y-82647971D01*
X92822104Y-82695590D01*
X92774485Y-82790828D01*
X92774485Y-82981304D01*
X92822104Y-83076542D01*
X92869723Y-83124161D01*
X92964961Y-83171780D01*
X93155438Y-83171780D01*
X93250676Y-83124161D01*
X93298295Y-83076542D01*
X93345914Y-82981304D01*
X93345914Y-82790828D01*
X93298295Y-82695590D01*
X93250676Y-82647971D01*
X93155438Y-82600352D01*
X109034342Y-59759342D02*
X108986723Y-59806961D01*
X108843866Y-59854580D01*
X108748628Y-59854580D01*
X108605771Y-59806961D01*
X108510533Y-59711723D01*
X108462914Y-59616485D01*
X108415295Y-59426009D01*
X108415295Y-59283152D01*
X108462914Y-59092676D01*
X108510533Y-58997438D01*
X108605771Y-58902200D01*
X108748628Y-58854580D01*
X108843866Y-58854580D01*
X108986723Y-58902200D01*
X109034342Y-58949819D01*
X109986723Y-59854580D02*
X109415295Y-59854580D01*
X109701009Y-59854580D02*
X109701009Y-58854580D01*
X109605771Y-58997438D01*
X109510533Y-59092676D01*
X109415295Y-59140295D01*
X110939104Y-59854580D02*
X110367676Y-59854580D01*
X110653390Y-59854580D02*
X110653390Y-58854580D01*
X110558152Y-58997438D01*
X110462914Y-59092676D01*
X110367676Y-59140295D01*
X115719266Y-58634380D02*
X115719266Y-59348666D01*
X115671647Y-59491523D01*
X115576409Y-59586761D01*
X115433552Y-59634380D01*
X115338314Y-59634380D01*
X116719266Y-59634380D02*
X116147838Y-59634380D01*
X116433552Y-59634380D02*
X116433552Y-58634380D01*
X116338314Y-58777238D01*
X116243076Y-58872476D01*
X116147838Y-58920095D01*
X117916819Y-59221666D02*
X118393009Y-59221666D01*
X117821580Y-59507380D02*
X118154914Y-58507380D01*
X118488247Y-59507380D01*
X119012057Y-59031190D02*
X119012057Y-59507380D01*
X118678723Y-58507380D02*
X119012057Y-59031190D01*
X119345390Y-58507380D01*
X120012057Y-58983571D02*
X119678723Y-58983571D01*
X119678723Y-59507380D02*
X119678723Y-58507380D01*
X120154914Y-58507380D01*
X120440628Y-58507380D02*
X121059676Y-58507380D01*
X120726342Y-58888333D01*
X120869200Y-58888333D01*
X120964438Y-58935952D01*
X121012057Y-58983571D01*
X121059676Y-59078809D01*
X121059676Y-59316904D01*
X121012057Y-59412142D01*
X120964438Y-59459761D01*
X120869200Y-59507380D01*
X120583485Y-59507380D01*
X120488247Y-59459761D01*
X120440628Y-59412142D01*
X121393009Y-58507380D02*
X122012057Y-58507380D01*
X121678723Y-58888333D01*
X121821580Y-58888333D01*
X121916819Y-58935952D01*
X121964438Y-58983571D01*
X122012057Y-59078809D01*
X122012057Y-59316904D01*
X121964438Y-59412142D01*
X121916819Y-59459761D01*
X121821580Y-59507380D01*
X121535866Y-59507380D01*
X121440628Y-59459761D01*
X121393009Y-59412142D01*
X122345390Y-58507380D02*
X122964438Y-58507380D01*
X122631104Y-58888333D01*
X122773961Y-58888333D01*
X122869200Y-58935952D01*
X122916819Y-58983571D01*
X122964438Y-59078809D01*
X122964438Y-59316904D01*
X122916819Y-59412142D01*
X122869200Y-59459761D01*
X122773961Y-59507380D01*
X122488247Y-59507380D01*
X122393009Y-59459761D01*
X122345390Y-59412142D01*
X123916819Y-59507380D02*
X123345390Y-59507380D01*
X123631104Y-59507380D02*
X123631104Y-58507380D01*
X123535866Y-58650238D01*
X123440628Y-58745476D01*
X123345390Y-58793095D01*
X124250152Y-58507380D02*
X124869200Y-58507380D01*
X124535866Y-58888333D01*
X124678723Y-58888333D01*
X124773961Y-58935952D01*
X124821580Y-58983571D01*
X124869200Y-59078809D01*
X124869200Y-59316904D01*
X124821580Y-59412142D01*
X124773961Y-59459761D01*
X124678723Y-59507380D01*
X124393009Y-59507380D01*
X124297771Y-59459761D01*
X124250152Y-59412142D01*
X125773961Y-58507380D02*
X125297771Y-58507380D01*
X125250152Y-58983571D01*
X125297771Y-58935952D01*
X125393009Y-58888333D01*
X125631104Y-58888333D01*
X125726342Y-58935952D01*
X125773961Y-58983571D01*
X125821580Y-59078809D01*
X125821580Y-59316904D01*
X125773961Y-59412142D01*
X125726342Y-59459761D01*
X125631104Y-59507380D01*
X125393009Y-59507380D01*
X125297771Y-59459761D01*
X125250152Y-59412142D01*
X121285000Y-54570380D02*
X121285000Y-54808476D01*
X121046904Y-54713238D02*
X121285000Y-54808476D01*
X121523095Y-54713238D01*
X121142142Y-54998952D02*
X121285000Y-54808476D01*
X121427857Y-54998952D01*
X97422733Y-77691742D02*
X97375114Y-77739361D01*
X97232257Y-77786980D01*
X97137019Y-77786980D01*
X96994161Y-77739361D01*
X96898923Y-77644123D01*
X96851304Y-77548885D01*
X96803685Y-77358409D01*
X96803685Y-77215552D01*
X96851304Y-77025076D01*
X96898923Y-76929838D01*
X96994161Y-76834600D01*
X97137019Y-76786980D01*
X97232257Y-76786980D01*
X97375114Y-76834600D01*
X97422733Y-76882219D01*
X98279876Y-77120314D02*
X98279876Y-77786980D01*
X98041780Y-76739361D02*
X97803685Y-77453647D01*
X98422733Y-77453647D01*
X99350533Y-69565780D02*
X99017200Y-69089590D01*
X98779104Y-69565780D02*
X98779104Y-68565780D01*
X99160057Y-68565780D01*
X99255295Y-68613400D01*
X99302914Y-68661019D01*
X99350533Y-68756257D01*
X99350533Y-68899114D01*
X99302914Y-68994352D01*
X99255295Y-69041971D01*
X99160057Y-69089590D01*
X98779104Y-69089590D01*
X99826723Y-69565780D02*
X100017200Y-69565780D01*
X100112438Y-69518161D01*
X100160057Y-69470542D01*
X100255295Y-69327685D01*
X100302914Y-69137209D01*
X100302914Y-68756257D01*
X100255295Y-68661019D01*
X100207676Y-68613400D01*
X100112438Y-68565780D01*
X99921961Y-68565780D01*
X99826723Y-68613400D01*
X99779104Y-68661019D01*
X99731485Y-68756257D01*
X99731485Y-68994352D01*
X99779104Y-69089590D01*
X99826723Y-69137209D01*
X99921961Y-69184828D01*
X100112438Y-69184828D01*
X100207676Y-69137209D01*
X100255295Y-69089590D01*
X100302914Y-68994352D01*
X107503933Y-51893742D02*
X107456314Y-51941361D01*
X107313457Y-51988980D01*
X107218219Y-51988980D01*
X107075361Y-51941361D01*
X106980123Y-51846123D01*
X106932504Y-51750885D01*
X106884885Y-51560409D01*
X106884885Y-51417552D01*
X106932504Y-51227076D01*
X106980123Y-51131838D01*
X107075361Y-51036600D01*
X107218219Y-50988980D01*
X107313457Y-50988980D01*
X107456314Y-51036600D01*
X107503933Y-51084219D01*
X107980123Y-51988980D02*
X108170600Y-51988980D01*
X108265838Y-51941361D01*
X108313457Y-51893742D01*
X108408695Y-51750885D01*
X108456314Y-51560409D01*
X108456314Y-51179457D01*
X108408695Y-51084219D01*
X108361076Y-51036600D01*
X108265838Y-50988980D01*
X108075361Y-50988980D01*
X107980123Y-51036600D01*
X107932504Y-51084219D01*
X107884885Y-51179457D01*
X107884885Y-51417552D01*
X107932504Y-51512790D01*
X107980123Y-51560409D01*
X108075361Y-51608028D01*
X108265838Y-51608028D01*
X108361076Y-51560409D01*
X108408695Y-51512790D01*
X108456314Y-51417552D01*
X106070495Y-54341780D02*
X106070495Y-55151304D01*
X106118114Y-55246542D01*
X106165733Y-55294161D01*
X106260971Y-55341780D01*
X106451447Y-55341780D01*
X106546685Y-55294161D01*
X106594304Y-55246542D01*
X106641923Y-55151304D01*
X106641923Y-54341780D01*
X107022876Y-54341780D02*
X107689542Y-54341780D01*
X107260971Y-55341780D01*
X96924904Y-70861180D02*
X96924904Y-69861180D01*
X97163000Y-69861180D01*
X97305857Y-69908800D01*
X97401095Y-70004038D01*
X97448714Y-70099276D01*
X97496333Y-70289752D01*
X97496333Y-70432609D01*
X97448714Y-70623085D01*
X97401095Y-70718323D01*
X97305857Y-70813561D01*
X97163000Y-70861180D01*
X96924904Y-70861180D01*
X97877285Y-69956419D02*
X97924904Y-69908800D01*
X98020142Y-69861180D01*
X98258238Y-69861180D01*
X98353476Y-69908800D01*
X98401095Y-69956419D01*
X98448714Y-70051657D01*
X98448714Y-70146895D01*
X98401095Y-70289752D01*
X97829666Y-70861180D01*
X98448714Y-70861180D01*
X120362742Y-51455580D02*
X120029409Y-50979390D01*
X119791314Y-51455580D02*
X119791314Y-50455580D01*
X120172266Y-50455580D01*
X120267504Y-50503200D01*
X120315123Y-50550819D01*
X120362742Y-50646057D01*
X120362742Y-50788914D01*
X120315123Y-50884152D01*
X120267504Y-50931771D01*
X120172266Y-50979390D01*
X119791314Y-50979390D01*
X121315123Y-51455580D02*
X120743695Y-51455580D01*
X121029409Y-51455580D02*
X121029409Y-50455580D01*
X120934171Y-50598438D01*
X120838933Y-50693676D01*
X120743695Y-50741295D01*
X121696076Y-50550819D02*
X121743695Y-50503200D01*
X121838933Y-50455580D01*
X122077028Y-50455580D01*
X122172266Y-50503200D01*
X122219885Y-50550819D01*
X122267504Y-50646057D01*
X122267504Y-50741295D01*
X122219885Y-50884152D01*
X121648457Y-51455580D01*
X122267504Y-51455580D01*
X106705495Y-65492380D02*
X106705495Y-66301904D01*
X106753114Y-66397142D01*
X106800733Y-66444761D01*
X106895971Y-66492380D01*
X107086447Y-66492380D01*
X107181685Y-66444761D01*
X107229304Y-66397142D01*
X107276923Y-66301904D01*
X107276923Y-65492380D01*
X108181685Y-65492380D02*
X107991209Y-65492380D01*
X107895971Y-65540000D01*
X107848352Y-65587619D01*
X107753114Y-65730476D01*
X107705495Y-65920952D01*
X107705495Y-66301904D01*
X107753114Y-66397142D01*
X107800733Y-66444761D01*
X107895971Y-66492380D01*
X108086447Y-66492380D01*
X108181685Y-66444761D01*
X108229304Y-66397142D01*
X108276923Y-66301904D01*
X108276923Y-66063809D01*
X108229304Y-65968571D01*
X108181685Y-65920952D01*
X108086447Y-65873333D01*
X107895971Y-65873333D01*
X107800733Y-65920952D01*
X107753114Y-65968571D01*
X107705495Y-66063809D01*
X106878933Y-86480580D02*
X106545600Y-86004390D01*
X106307504Y-86480580D02*
X106307504Y-85480580D01*
X106688457Y-85480580D01*
X106783695Y-85528200D01*
X106831314Y-85575819D01*
X106878933Y-85671057D01*
X106878933Y-85813914D01*
X106831314Y-85909152D01*
X106783695Y-85956771D01*
X106688457Y-86004390D01*
X106307504Y-86004390D01*
X107783695Y-85480580D02*
X107307504Y-85480580D01*
X107259885Y-85956771D01*
X107307504Y-85909152D01*
X107402742Y-85861533D01*
X107640838Y-85861533D01*
X107736076Y-85909152D01*
X107783695Y-85956771D01*
X107831314Y-86052009D01*
X107831314Y-86290104D01*
X107783695Y-86385342D01*
X107736076Y-86432961D01*
X107640838Y-86480580D01*
X107402742Y-86480580D01*
X107307504Y-86432961D01*
X107259885Y-86385342D01*
X95413533Y-83034142D02*
X95365914Y-83081761D01*
X95223057Y-83129380D01*
X95127819Y-83129380D01*
X94984961Y-83081761D01*
X94889723Y-82986523D01*
X94842104Y-82891285D01*
X94794485Y-82700809D01*
X94794485Y-82557952D01*
X94842104Y-82367476D01*
X94889723Y-82272238D01*
X94984961Y-82177000D01*
X95127819Y-82129380D01*
X95223057Y-82129380D01*
X95365914Y-82177000D01*
X95413533Y-82224619D01*
X95746866Y-82129380D02*
X96413533Y-82129380D01*
X95984961Y-83129380D01*
X99407742Y-68295780D02*
X99074409Y-67819590D01*
X98836314Y-68295780D02*
X98836314Y-67295780D01*
X99217266Y-67295780D01*
X99312504Y-67343400D01*
X99360123Y-67391019D01*
X99407742Y-67486257D01*
X99407742Y-67629114D01*
X99360123Y-67724352D01*
X99312504Y-67771971D01*
X99217266Y-67819590D01*
X98836314Y-67819590D01*
X100360123Y-68295780D02*
X99788695Y-68295780D01*
X100074409Y-68295780D02*
X100074409Y-67295780D01*
X99979171Y-67438638D01*
X99883933Y-67533876D01*
X99788695Y-67581495D01*
X100979171Y-67295780D02*
X101074409Y-67295780D01*
X101169647Y-67343400D01*
X101217266Y-67391019D01*
X101264885Y-67486257D01*
X101312504Y-67676733D01*
X101312504Y-67914828D01*
X101264885Y-68105304D01*
X101217266Y-68200542D01*
X101169647Y-68248161D01*
X101074409Y-68295780D01*
X100979171Y-68295780D01*
X100883933Y-68248161D01*
X100836314Y-68200542D01*
X100788695Y-68105304D01*
X100741076Y-67914828D01*
X100741076Y-67676733D01*
X100788695Y-67486257D01*
X100836314Y-67391019D01*
X100883933Y-67343400D01*
X100979171Y-67295780D01*
X91741666Y-55535580D02*
X91741666Y-56249866D01*
X91694047Y-56392723D01*
X91598809Y-56487961D01*
X91455952Y-56535580D01*
X91360714Y-56535580D01*
X92646428Y-55868914D02*
X92646428Y-56535580D01*
X92408333Y-55487961D02*
X92170238Y-56202247D01*
X92789285Y-56202247D01*
X136498980Y-97229333D02*
X137213266Y-97229333D01*
X137356123Y-97276952D01*
X137451361Y-97372190D01*
X137498980Y-97515047D01*
X137498980Y-97610285D01*
X136498980Y-96324571D02*
X136498980Y-96515047D01*
X136546600Y-96610285D01*
X136594219Y-96657904D01*
X136737076Y-96753142D01*
X136927552Y-96800761D01*
X137308504Y-96800761D01*
X137403742Y-96753142D01*
X137451361Y-96705523D01*
X137498980Y-96610285D01*
X137498980Y-96419809D01*
X137451361Y-96324571D01*
X137403742Y-96276952D01*
X137308504Y-96229333D01*
X137070409Y-96229333D01*
X136975171Y-96276952D01*
X136927552Y-96324571D01*
X136879933Y-96419809D01*
X136879933Y-96610285D01*
X136927552Y-96705523D01*
X136975171Y-96753142D01*
X137070409Y-96800761D01*
X127204742Y-70975457D02*
X127252361Y-71023076D01*
X127299980Y-71165933D01*
X127299980Y-71261171D01*
X127252361Y-71404028D01*
X127157123Y-71499266D01*
X127061885Y-71546885D01*
X126871409Y-71594504D01*
X126728552Y-71594504D01*
X126538076Y-71546885D01*
X126442838Y-71499266D01*
X126347600Y-71404028D01*
X126299980Y-71261171D01*
X126299980Y-71165933D01*
X126347600Y-71023076D01*
X126395219Y-70975457D01*
X127299980Y-70023076D02*
X127299980Y-70594504D01*
X127299980Y-70308790D02*
X126299980Y-70308790D01*
X126442838Y-70404028D01*
X126538076Y-70499266D01*
X126585695Y-70594504D01*
X127299980Y-69546885D02*
X127299980Y-69356409D01*
X127252361Y-69261171D01*
X127204742Y-69213552D01*
X127061885Y-69118314D01*
X126871409Y-69070695D01*
X126490457Y-69070695D01*
X126395219Y-69118314D01*
X126347600Y-69165933D01*
X126299980Y-69261171D01*
X126299980Y-69451647D01*
X126347600Y-69546885D01*
X126395219Y-69594504D01*
X126490457Y-69642123D01*
X126728552Y-69642123D01*
X126823790Y-69594504D01*
X126871409Y-69546885D01*
X126919028Y-69451647D01*
X126919028Y-69261171D01*
X126871409Y-69165933D01*
X126823790Y-69118314D01*
X126728552Y-69070695D01*
X112567980Y-61120257D02*
X112091790Y-61453590D01*
X112567980Y-61691685D02*
X111567980Y-61691685D01*
X111567980Y-61310733D01*
X111615600Y-61215495D01*
X111663219Y-61167876D01*
X111758457Y-61120257D01*
X111901314Y-61120257D01*
X111996552Y-61167876D01*
X112044171Y-61215495D01*
X112091790Y-61310733D01*
X112091790Y-61691685D01*
X112567980Y-60167876D02*
X112567980Y-60739304D01*
X112567980Y-60453590D02*
X111567980Y-60453590D01*
X111710838Y-60548828D01*
X111806076Y-60644066D01*
X111853695Y-60739304D01*
X112567980Y-59215495D02*
X112567980Y-59786923D01*
X112567980Y-59501209D02*
X111567980Y-59501209D01*
X111710838Y-59596447D01*
X111806076Y-59691685D01*
X111853695Y-59786923D01*
X109345504Y-86464380D02*
X109345504Y-85464380D01*
X109583600Y-85464380D01*
X109726457Y-85512000D01*
X109821695Y-85607238D01*
X109869314Y-85702476D01*
X109916933Y-85892952D01*
X109916933Y-86035809D01*
X109869314Y-86226285D01*
X109821695Y-86321523D01*
X109726457Y-86416761D01*
X109583600Y-86464380D01*
X109345504Y-86464380D01*
X110869314Y-86464380D02*
X110297885Y-86464380D01*
X110583600Y-86464380D02*
X110583600Y-85464380D01*
X110488361Y-85607238D01*
X110393123Y-85702476D01*
X110297885Y-85750095D01*
X96924904Y-69616580D02*
X96924904Y-68616580D01*
X97163000Y-68616580D01*
X97305857Y-68664200D01*
X97401095Y-68759438D01*
X97448714Y-68854676D01*
X97496333Y-69045152D01*
X97496333Y-69188009D01*
X97448714Y-69378485D01*
X97401095Y-69473723D01*
X97305857Y-69568961D01*
X97163000Y-69616580D01*
X96924904Y-69616580D01*
X98401095Y-68616580D02*
X97924904Y-68616580D01*
X97877285Y-69092771D01*
X97924904Y-69045152D01*
X98020142Y-68997533D01*
X98258238Y-68997533D01*
X98353476Y-69045152D01*
X98401095Y-69092771D01*
X98448714Y-69188009D01*
X98448714Y-69426104D01*
X98401095Y-69521342D01*
X98353476Y-69568961D01*
X98258238Y-69616580D01*
X98020142Y-69616580D01*
X97924904Y-69568961D01*
X97877285Y-69521342D01*
X96950304Y-67051180D02*
X96950304Y-66051180D01*
X97188400Y-66051180D01*
X97331257Y-66098800D01*
X97426495Y-66194038D01*
X97474114Y-66289276D01*
X97521733Y-66479752D01*
X97521733Y-66622609D01*
X97474114Y-66813085D01*
X97426495Y-66908323D01*
X97331257Y-67003561D01*
X97188400Y-67051180D01*
X96950304Y-67051180D01*
X98378876Y-66384514D02*
X98378876Y-67051180D01*
X98140780Y-66003561D02*
X97902685Y-66717847D01*
X98521733Y-66717847D01*
X130557590Y-76726990D02*
X131033780Y-76726990D01*
X130033780Y-77060323D02*
X130557590Y-76726990D01*
X130033780Y-76393657D01*
X131033780Y-75536514D02*
X131033780Y-76107942D01*
X131033780Y-75822228D02*
X130033780Y-75822228D01*
X130176638Y-75917466D01*
X130271876Y-76012704D01*
X130319495Y-76107942D01*
X91741666Y-94753180D02*
X91741666Y-95467466D01*
X91694047Y-95610323D01*
X91598809Y-95705561D01*
X91455952Y-95753180D01*
X91360714Y-95753180D01*
X92170238Y-94848419D02*
X92217857Y-94800800D01*
X92313095Y-94753180D01*
X92551190Y-94753180D01*
X92646428Y-94800800D01*
X92694047Y-94848419D01*
X92741666Y-94943657D01*
X92741666Y-95038895D01*
X92694047Y-95181752D01*
X92122619Y-95753180D01*
X92741666Y-95753180D01*
X111593333Y-72442342D02*
X111545714Y-72489961D01*
X111402857Y-72537580D01*
X111307619Y-72537580D01*
X111164761Y-72489961D01*
X111069523Y-72394723D01*
X111021904Y-72299485D01*
X110974285Y-72109009D01*
X110974285Y-71966152D01*
X111021904Y-71775676D01*
X111069523Y-71680438D01*
X111164761Y-71585200D01*
X111307619Y-71537580D01*
X111402857Y-71537580D01*
X111545714Y-71585200D01*
X111593333Y-71632819D01*
X111926666Y-71537580D02*
X112545714Y-71537580D01*
X112212380Y-71918533D01*
X112355238Y-71918533D01*
X112450476Y-71966152D01*
X112498095Y-72013771D01*
X112545714Y-72109009D01*
X112545714Y-72347104D01*
X112498095Y-72442342D01*
X112450476Y-72489961D01*
X112355238Y-72537580D01*
X112069523Y-72537580D01*
X111974285Y-72489961D01*
X111926666Y-72442342D01*
X112691942Y-81882742D02*
X112644323Y-81930361D01*
X112501466Y-81977980D01*
X112406228Y-81977980D01*
X112263371Y-81930361D01*
X112168133Y-81835123D01*
X112120514Y-81739885D01*
X112072895Y-81549409D01*
X112072895Y-81406552D01*
X112120514Y-81216076D01*
X112168133Y-81120838D01*
X112263371Y-81025600D01*
X112406228Y-80977980D01*
X112501466Y-80977980D01*
X112644323Y-81025600D01*
X112691942Y-81073219D01*
X113644323Y-81977980D02*
X113072895Y-81977980D01*
X113358609Y-81977980D02*
X113358609Y-80977980D01*
X113263371Y-81120838D01*
X113168133Y-81216076D01*
X113072895Y-81263695D01*
X114501466Y-80977980D02*
X114310990Y-80977980D01*
X114215752Y-81025600D01*
X114168133Y-81073219D01*
X114072895Y-81216076D01*
X114025276Y-81406552D01*
X114025276Y-81787504D01*
X114072895Y-81882742D01*
X114120514Y-81930361D01*
X114215752Y-81977980D01*
X114406228Y-81977980D01*
X114501466Y-81930361D01*
X114549085Y-81882742D01*
X114596704Y-81787504D01*
X114596704Y-81549409D01*
X114549085Y-81454171D01*
X114501466Y-81406552D01*
X114406228Y-81358933D01*
X114215752Y-81358933D01*
X114120514Y-81406552D01*
X114072895Y-81454171D01*
X114025276Y-81549409D01*
X92760895Y-77455780D02*
X92760895Y-78265304D01*
X92808514Y-78360542D01*
X92856133Y-78408161D01*
X92951371Y-78455780D01*
X93141847Y-78455780D01*
X93237085Y-78408161D01*
X93284704Y-78360542D01*
X93332323Y-78265304D01*
X93332323Y-77455780D01*
X94332323Y-78455780D02*
X93760895Y-78455780D01*
X94046609Y-78455780D02*
X94046609Y-77455780D01*
X93951371Y-77598638D01*
X93856133Y-77693876D01*
X93760895Y-77741495D01*
X101181933Y-81857342D02*
X101134314Y-81904961D01*
X100991457Y-81952580D01*
X100896219Y-81952580D01*
X100753361Y-81904961D01*
X100658123Y-81809723D01*
X100610504Y-81714485D01*
X100562885Y-81524009D01*
X100562885Y-81381152D01*
X100610504Y-81190676D01*
X100658123Y-81095438D01*
X100753361Y-81000200D01*
X100896219Y-80952580D01*
X100991457Y-80952580D01*
X101134314Y-81000200D01*
X101181933Y-81047819D01*
X102039076Y-80952580D02*
X101848600Y-80952580D01*
X101753361Y-81000200D01*
X101705742Y-81047819D01*
X101610504Y-81190676D01*
X101562885Y-81381152D01*
X101562885Y-81762104D01*
X101610504Y-81857342D01*
X101658123Y-81904961D01*
X101753361Y-81952580D01*
X101943838Y-81952580D01*
X102039076Y-81904961D01*
X102086695Y-81857342D01*
X102134314Y-81762104D01*
X102134314Y-81524009D01*
X102086695Y-81428771D01*
X102039076Y-81381152D01*
X101943838Y-81333533D01*
X101753361Y-81333533D01*
X101658123Y-81381152D01*
X101610504Y-81428771D01*
X101562885Y-81524009D01*
X90182980Y-86615066D02*
X89706790Y-86948400D01*
X90182980Y-87186495D02*
X89182980Y-87186495D01*
X89182980Y-86805542D01*
X89230600Y-86710304D01*
X89278219Y-86662685D01*
X89373457Y-86615066D01*
X89516314Y-86615066D01*
X89611552Y-86662685D01*
X89659171Y-86710304D01*
X89706790Y-86805542D01*
X89706790Y-87186495D01*
X90182980Y-85662685D02*
X90182980Y-86234114D01*
X90182980Y-85948400D02*
X89182980Y-85948400D01*
X89325838Y-86043638D01*
X89421076Y-86138876D01*
X89468695Y-86234114D01*
X101294133Y-61988980D02*
X100960800Y-61512790D01*
X100722704Y-61988980D02*
X100722704Y-60988980D01*
X101103657Y-60988980D01*
X101198895Y-61036600D01*
X101246514Y-61084219D01*
X101294133Y-61179457D01*
X101294133Y-61322314D01*
X101246514Y-61417552D01*
X101198895Y-61465171D01*
X101103657Y-61512790D01*
X100722704Y-61512790D01*
X102151276Y-61322314D02*
X102151276Y-61988980D01*
X101913180Y-60941361D02*
X101675085Y-61655647D01*
X102294133Y-61655647D01*
X129449533Y-84102180D02*
X129116200Y-83625990D01*
X128878104Y-84102180D02*
X128878104Y-83102180D01*
X129259057Y-83102180D01*
X129354295Y-83149800D01*
X129401914Y-83197419D01*
X129449533Y-83292657D01*
X129449533Y-83435514D01*
X129401914Y-83530752D01*
X129354295Y-83578371D01*
X129259057Y-83625990D01*
X128878104Y-83625990D01*
X129782866Y-83102180D02*
X130449533Y-83102180D01*
X130020961Y-84102180D01*
X134850142Y-74156866D02*
X134897761Y-74204485D01*
X134945380Y-74347342D01*
X134945380Y-74442580D01*
X134897761Y-74585438D01*
X134802523Y-74680676D01*
X134707285Y-74728295D01*
X134516809Y-74775914D01*
X134373952Y-74775914D01*
X134183476Y-74728295D01*
X134088238Y-74680676D01*
X133993000Y-74585438D01*
X133945380Y-74442580D01*
X133945380Y-74347342D01*
X133993000Y-74204485D01*
X134040619Y-74156866D01*
X134945380Y-73204485D02*
X134945380Y-73775914D01*
X134945380Y-73490200D02*
X133945380Y-73490200D01*
X134088238Y-73585438D01*
X134183476Y-73680676D01*
X134231095Y-73775914D01*
X112955342Y-64295257D02*
X113002961Y-64342876D01*
X113050580Y-64485733D01*
X113050580Y-64580971D01*
X113002961Y-64723828D01*
X112907723Y-64819066D01*
X112812485Y-64866685D01*
X112622009Y-64914304D01*
X112479152Y-64914304D01*
X112288676Y-64866685D01*
X112193438Y-64819066D01*
X112098200Y-64723828D01*
X112050580Y-64580971D01*
X112050580Y-64485733D01*
X112098200Y-64342876D01*
X112145819Y-64295257D01*
X113050580Y-63342876D02*
X113050580Y-63914304D01*
X113050580Y-63628590D02*
X112050580Y-63628590D01*
X112193438Y-63723828D01*
X112288676Y-63819066D01*
X112336295Y-63914304D01*
X112050580Y-63009542D02*
X112050580Y-62390495D01*
X112431533Y-62723828D01*
X112431533Y-62580971D01*
X112479152Y-62485733D01*
X112526771Y-62438114D01*
X112622009Y-62390495D01*
X112860104Y-62390495D01*
X112955342Y-62438114D01*
X113002961Y-62485733D01*
X113050580Y-62580971D01*
X113050580Y-62866685D01*
X113002961Y-62961923D01*
X112955342Y-63009542D01*
X87855466Y-84703380D02*
X87855466Y-85417666D01*
X87807847Y-85560523D01*
X87712609Y-85655761D01*
X87569752Y-85703380D01*
X87474514Y-85703380D01*
X88236419Y-84703380D02*
X88855466Y-84703380D01*
X88522133Y-85084333D01*
X88664990Y-85084333D01*
X88760228Y-85131952D01*
X88807847Y-85179571D01*
X88855466Y-85274809D01*
X88855466Y-85512904D01*
X88807847Y-85608142D01*
X88760228Y-85655761D01*
X88664990Y-85703380D01*
X88379276Y-85703380D01*
X88284038Y-85655761D01*
X88236419Y-85608142D01*
X131900704Y-84102180D02*
X131900704Y-83102180D01*
X132138800Y-83102180D01*
X132281657Y-83149800D01*
X132376895Y-83245038D01*
X132424514Y-83340276D01*
X132472133Y-83530752D01*
X132472133Y-83673609D01*
X132424514Y-83864085D01*
X132376895Y-83959323D01*
X132281657Y-84054561D01*
X132138800Y-84102180D01*
X131900704Y-84102180D01*
X132805466Y-83102180D02*
X133424514Y-83102180D01*
X133091180Y-83483133D01*
X133234038Y-83483133D01*
X133329276Y-83530752D01*
X133376895Y-83578371D01*
X133424514Y-83673609D01*
X133424514Y-83911704D01*
X133376895Y-84006942D01*
X133329276Y-84054561D01*
X133234038Y-84102180D01*
X132948323Y-84102180D01*
X132853085Y-84054561D01*
X132805466Y-84006942D01*
X113629142Y-69783742D02*
X113581523Y-69831361D01*
X113438666Y-69878980D01*
X113343428Y-69878980D01*
X113200571Y-69831361D01*
X113105333Y-69736123D01*
X113057714Y-69640885D01*
X113010095Y-69450409D01*
X113010095Y-69307552D01*
X113057714Y-69117076D01*
X113105333Y-69021838D01*
X113200571Y-68926600D01*
X113343428Y-68878980D01*
X113438666Y-68878980D01*
X113581523Y-68926600D01*
X113629142Y-68974219D01*
X114581523Y-69878980D02*
X114010095Y-69878980D01*
X114295809Y-69878980D02*
X114295809Y-68878980D01*
X114200571Y-69021838D01*
X114105333Y-69117076D01*
X114010095Y-69164695D01*
X115486285Y-68878980D02*
X115010095Y-68878980D01*
X114962476Y-69355171D01*
X115010095Y-69307552D01*
X115105333Y-69259933D01*
X115343428Y-69259933D01*
X115438666Y-69307552D01*
X115486285Y-69355171D01*
X115533904Y-69450409D01*
X115533904Y-69688504D01*
X115486285Y-69783742D01*
X115438666Y-69831361D01*
X115343428Y-69878980D01*
X115105333Y-69878980D01*
X115010095Y-69831361D01*
X114962476Y-69783742D01*
X100137980Y-79298704D02*
X100947504Y-79298704D01*
X101042742Y-79251085D01*
X101090361Y-79203466D01*
X101137980Y-79108228D01*
X101137980Y-78917752D01*
X101090361Y-78822514D01*
X101042742Y-78774895D01*
X100947504Y-78727276D01*
X100137980Y-78727276D01*
X100471314Y-77822514D02*
X101137980Y-77822514D01*
X100090361Y-78060609D02*
X100804647Y-78298704D01*
X100804647Y-77679657D01*
X99401333Y-66949580D02*
X99068000Y-66473390D01*
X98829904Y-66949580D02*
X98829904Y-65949580D01*
X99210857Y-65949580D01*
X99306095Y-65997200D01*
X99353714Y-66044819D01*
X99401333Y-66140057D01*
X99401333Y-66282914D01*
X99353714Y-66378152D01*
X99306095Y-66425771D01*
X99210857Y-66473390D01*
X98829904Y-66473390D01*
X99972761Y-66378152D02*
X99877523Y-66330533D01*
X99829904Y-66282914D01*
X99782285Y-66187676D01*
X99782285Y-66140057D01*
X99829904Y-66044819D01*
X99877523Y-65997200D01*
X99972761Y-65949580D01*
X100163238Y-65949580D01*
X100258476Y-65997200D01*
X100306095Y-66044819D01*
X100353714Y-66140057D01*
X100353714Y-66187676D01*
X100306095Y-66282914D01*
X100258476Y-66330533D01*
X100163238Y-66378152D01*
X99972761Y-66378152D01*
X99877523Y-66425771D01*
X99829904Y-66473390D01*
X99782285Y-66568628D01*
X99782285Y-66759104D01*
X99829904Y-66854342D01*
X99877523Y-66901961D01*
X99972761Y-66949580D01*
X100163238Y-66949580D01*
X100258476Y-66901961D01*
X100306095Y-66854342D01*
X100353714Y-66759104D01*
X100353714Y-66568628D01*
X100306095Y-66473390D01*
X100258476Y-66425771D01*
X100163238Y-66378152D01*
X113631742Y-73170542D02*
X113584123Y-73218161D01*
X113441266Y-73265780D01*
X113346028Y-73265780D01*
X113203171Y-73218161D01*
X113107933Y-73122923D01*
X113060314Y-73027685D01*
X113012695Y-72837209D01*
X113012695Y-72694352D01*
X113060314Y-72503876D01*
X113107933Y-72408638D01*
X113203171Y-72313400D01*
X113346028Y-72265780D01*
X113441266Y-72265780D01*
X113584123Y-72313400D01*
X113631742Y-72361019D01*
X114584123Y-73265780D02*
X114012695Y-73265780D01*
X114298409Y-73265780D02*
X114298409Y-72265780D01*
X114203171Y-72408638D01*
X114107933Y-72503876D01*
X114012695Y-72551495D01*
X115155552Y-72694352D02*
X115060314Y-72646733D01*
X115012695Y-72599114D01*
X114965076Y-72503876D01*
X114965076Y-72456257D01*
X115012695Y-72361019D01*
X115060314Y-72313400D01*
X115155552Y-72265780D01*
X115346028Y-72265780D01*
X115441266Y-72313400D01*
X115488885Y-72361019D01*
X115536504Y-72456257D01*
X115536504Y-72503876D01*
X115488885Y-72599114D01*
X115441266Y-72646733D01*
X115346028Y-72694352D01*
X115155552Y-72694352D01*
X115060314Y-72741971D01*
X115012695Y-72789590D01*
X114965076Y-72884828D01*
X114965076Y-73075304D01*
X115012695Y-73170542D01*
X115060314Y-73218161D01*
X115155552Y-73265780D01*
X115346028Y-73265780D01*
X115441266Y-73218161D01*
X115488885Y-73170542D01*
X115536504Y-73075304D01*
X115536504Y-72884828D01*
X115488885Y-72789590D01*
X115441266Y-72741971D01*
X115346028Y-72694352D01*
X128525542Y-70924657D02*
X128573161Y-70972276D01*
X128620780Y-71115133D01*
X128620780Y-71210371D01*
X128573161Y-71353228D01*
X128477923Y-71448466D01*
X128382685Y-71496085D01*
X128192209Y-71543704D01*
X128049352Y-71543704D01*
X127858876Y-71496085D01*
X127763638Y-71448466D01*
X127668400Y-71353228D01*
X127620780Y-71210371D01*
X127620780Y-71115133D01*
X127668400Y-70972276D01*
X127716019Y-70924657D01*
X128620780Y-69972276D02*
X128620780Y-70543704D01*
X128620780Y-70257990D02*
X127620780Y-70257990D01*
X127763638Y-70353228D01*
X127858876Y-70448466D01*
X127906495Y-70543704D01*
X127954114Y-69115133D02*
X128620780Y-69115133D01*
X127573161Y-69353228D02*
X128287447Y-69591323D01*
X128287447Y-68972276D01*
X127534942Y-80678257D02*
X127582561Y-80725876D01*
X127630180Y-80868733D01*
X127630180Y-80963971D01*
X127582561Y-81106828D01*
X127487323Y-81202066D01*
X127392085Y-81249685D01*
X127201609Y-81297304D01*
X127058752Y-81297304D01*
X126868276Y-81249685D01*
X126773038Y-81202066D01*
X126677800Y-81106828D01*
X126630180Y-80963971D01*
X126630180Y-80868733D01*
X126677800Y-80725876D01*
X126725419Y-80678257D01*
X127630180Y-79725876D02*
X127630180Y-80297304D01*
X127630180Y-80011590D02*
X126630180Y-80011590D01*
X126773038Y-80106828D01*
X126868276Y-80202066D01*
X126915895Y-80297304D01*
X126630180Y-79392542D02*
X126630180Y-78725876D01*
X127630180Y-79154447D01*
X126890542Y-68606942D02*
X126842923Y-68654561D01*
X126700066Y-68702180D01*
X126604828Y-68702180D01*
X126461971Y-68654561D01*
X126366733Y-68559323D01*
X126319114Y-68464085D01*
X126271495Y-68273609D01*
X126271495Y-68130752D01*
X126319114Y-67940276D01*
X126366733Y-67845038D01*
X126461971Y-67749800D01*
X126604828Y-67702180D01*
X126700066Y-67702180D01*
X126842923Y-67749800D01*
X126890542Y-67797419D01*
X127271495Y-67797419D02*
X127319114Y-67749800D01*
X127414352Y-67702180D01*
X127652447Y-67702180D01*
X127747685Y-67749800D01*
X127795304Y-67797419D01*
X127842923Y-67892657D01*
X127842923Y-67987895D01*
X127795304Y-68130752D01*
X127223876Y-68702180D01*
X127842923Y-68702180D01*
X128461971Y-67702180D02*
X128557209Y-67702180D01*
X128652447Y-67749800D01*
X128700066Y-67797419D01*
X128747685Y-67892657D01*
X128795304Y-68083133D01*
X128795304Y-68321228D01*
X128747685Y-68511704D01*
X128700066Y-68606942D01*
X128652447Y-68654561D01*
X128557209Y-68702180D01*
X128461971Y-68702180D01*
X128366733Y-68654561D01*
X128319114Y-68606942D01*
X128271495Y-68511704D01*
X128223876Y-68321228D01*
X128223876Y-68083133D01*
X128271495Y-67892657D01*
X128319114Y-67797419D01*
X128366733Y-67749800D01*
X128461971Y-67702180D01*
X109739133Y-83127342D02*
X109691514Y-83174961D01*
X109548657Y-83222580D01*
X109453419Y-83222580D01*
X109310561Y-83174961D01*
X109215323Y-83079723D01*
X109167704Y-82984485D01*
X109120085Y-82794009D01*
X109120085Y-82651152D01*
X109167704Y-82460676D01*
X109215323Y-82365438D01*
X109310561Y-82270200D01*
X109453419Y-82222580D01*
X109548657Y-82222580D01*
X109691514Y-82270200D01*
X109739133Y-82317819D01*
X110120085Y-82317819D02*
X110167704Y-82270200D01*
X110262942Y-82222580D01*
X110501038Y-82222580D01*
X110596276Y-82270200D01*
X110643895Y-82317819D01*
X110691514Y-82413057D01*
X110691514Y-82508295D01*
X110643895Y-82651152D01*
X110072466Y-83222580D01*
X110691514Y-83222580D01*
X99350533Y-70911980D02*
X99017200Y-70435790D01*
X98779104Y-70911980D02*
X98779104Y-69911980D01*
X99160057Y-69911980D01*
X99255295Y-69959600D01*
X99302914Y-70007219D01*
X99350533Y-70102457D01*
X99350533Y-70245314D01*
X99302914Y-70340552D01*
X99255295Y-70388171D01*
X99160057Y-70435790D01*
X98779104Y-70435790D01*
X100207676Y-69911980D02*
X100017200Y-69911980D01*
X99921961Y-69959600D01*
X99874342Y-70007219D01*
X99779104Y-70150076D01*
X99731485Y-70340552D01*
X99731485Y-70721504D01*
X99779104Y-70816742D01*
X99826723Y-70864361D01*
X99921961Y-70911980D01*
X100112438Y-70911980D01*
X100207676Y-70864361D01*
X100255295Y-70816742D01*
X100302914Y-70721504D01*
X100302914Y-70483409D01*
X100255295Y-70388171D01*
X100207676Y-70340552D01*
X100112438Y-70292933D01*
X99921961Y-70292933D01*
X99826723Y-70340552D01*
X99779104Y-70388171D01*
X99731485Y-70483409D01*
X119594380Y-77469904D02*
X120403904Y-77469904D01*
X120499142Y-77422285D01*
X120546761Y-77374666D01*
X120594380Y-77279428D01*
X120594380Y-77088952D01*
X120546761Y-76993714D01*
X120499142Y-76946095D01*
X120403904Y-76898476D01*
X119594380Y-76898476D01*
X119689619Y-76469904D02*
X119642000Y-76422285D01*
X119594380Y-76327047D01*
X119594380Y-76088952D01*
X119642000Y-75993714D01*
X119689619Y-75946095D01*
X119784857Y-75898476D01*
X119880095Y-75898476D01*
X120022952Y-75946095D01*
X120594380Y-76517523D01*
X120594380Y-75898476D01*
X87931666Y-61536780D02*
X87931666Y-62251066D01*
X87884047Y-62393923D01*
X87788809Y-62489161D01*
X87645952Y-62536780D01*
X87550714Y-62536780D01*
X88884047Y-61536780D02*
X88407857Y-61536780D01*
X88360238Y-62012971D01*
X88407857Y-61965352D01*
X88503095Y-61917733D01*
X88741190Y-61917733D01*
X88836428Y-61965352D01*
X88884047Y-62012971D01*
X88931666Y-62108209D01*
X88931666Y-62346304D01*
X88884047Y-62441542D01*
X88836428Y-62489161D01*
X88741190Y-62536780D01*
X88503095Y-62536780D01*
X88407857Y-62489161D01*
X88360238Y-62441542D01*
X104024180Y-76657104D02*
X104833704Y-76657104D01*
X104928942Y-76609485D01*
X104976561Y-76561866D01*
X105024180Y-76466628D01*
X105024180Y-76276152D01*
X104976561Y-76180914D01*
X104928942Y-76133295D01*
X104833704Y-76085676D01*
X104024180Y-76085676D01*
X104024180Y-75704723D02*
X104024180Y-75085676D01*
X104405133Y-75419009D01*
X104405133Y-75276152D01*
X104452752Y-75180914D01*
X104500371Y-75133295D01*
X104595609Y-75085676D01*
X104833704Y-75085676D01*
X104928942Y-75133295D01*
X104976561Y-75180914D01*
X105024180Y-75276152D01*
X105024180Y-75561866D01*
X104976561Y-75657104D01*
X104928942Y-75704723D01*
X102439742Y-53906657D02*
X102487361Y-53954276D01*
X102534980Y-54097133D01*
X102534980Y-54192371D01*
X102487361Y-54335228D01*
X102392123Y-54430466D01*
X102296885Y-54478085D01*
X102106409Y-54525704D01*
X101963552Y-54525704D01*
X101773076Y-54478085D01*
X101677838Y-54430466D01*
X101582600Y-54335228D01*
X101534980Y-54192371D01*
X101534980Y-54097133D01*
X101582600Y-53954276D01*
X101630219Y-53906657D01*
X102534980Y-52954276D02*
X102534980Y-53525704D01*
X102534980Y-53239990D02*
X101534980Y-53239990D01*
X101677838Y-53335228D01*
X101773076Y-53430466D01*
X101820695Y-53525704D01*
X101534980Y-52335228D02*
X101534980Y-52239990D01*
X101582600Y-52144752D01*
X101630219Y-52097133D01*
X101725457Y-52049514D01*
X101915933Y-52001895D01*
X102154028Y-52001895D01*
X102344504Y-52049514D01*
X102439742Y-52097133D01*
X102487361Y-52144752D01*
X102534980Y-52239990D01*
X102534980Y-52335228D01*
X102487361Y-52430466D01*
X102439742Y-52478085D01*
X102344504Y-52525704D01*
X102154028Y-52573323D01*
X101915933Y-52573323D01*
X101725457Y-52525704D01*
X101630219Y-52478085D01*
X101582600Y-52430466D01*
X101534980Y-52335228D01*
X112691942Y-78572142D02*
X112644323Y-78619761D01*
X112501466Y-78667380D01*
X112406228Y-78667380D01*
X112263371Y-78619761D01*
X112168133Y-78524523D01*
X112120514Y-78429285D01*
X112072895Y-78238809D01*
X112072895Y-78095952D01*
X112120514Y-77905476D01*
X112168133Y-77810238D01*
X112263371Y-77715000D01*
X112406228Y-77667380D01*
X112501466Y-77667380D01*
X112644323Y-77715000D01*
X112691942Y-77762619D01*
X113072895Y-77762619D02*
X113120514Y-77715000D01*
X113215752Y-77667380D01*
X113453847Y-77667380D01*
X113549085Y-77715000D01*
X113596704Y-77762619D01*
X113644323Y-77857857D01*
X113644323Y-77953095D01*
X113596704Y-78095952D01*
X113025276Y-78667380D01*
X113644323Y-78667380D01*
X114596704Y-78667380D02*
X114025276Y-78667380D01*
X114310990Y-78667380D02*
X114310990Y-77667380D01*
X114215752Y-77810238D01*
X114120514Y-77905476D01*
X114025276Y-77953095D01*
X98648780Y-53913066D02*
X98172590Y-54246400D01*
X98648780Y-54484495D02*
X97648780Y-54484495D01*
X97648780Y-54103542D01*
X97696400Y-54008304D01*
X97744019Y-53960685D01*
X97839257Y-53913066D01*
X97982114Y-53913066D01*
X98077352Y-53960685D01*
X98124971Y-54008304D01*
X98172590Y-54103542D01*
X98172590Y-54484495D01*
X97648780Y-53579733D02*
X97648780Y-52960685D01*
X98029733Y-53294019D01*
X98029733Y-53151161D01*
X98077352Y-53055923D01*
X98124971Y-53008304D01*
X98220209Y-52960685D01*
X98458304Y-52960685D01*
X98553542Y-53008304D01*
X98601161Y-53055923D01*
X98648780Y-53151161D01*
X98648780Y-53436876D01*
X98601161Y-53532114D01*
X98553542Y-53579733D01*
X96950304Y-68321180D02*
X96950304Y-67321180D01*
X97188400Y-67321180D01*
X97331257Y-67368800D01*
X97426495Y-67464038D01*
X97474114Y-67559276D01*
X97521733Y-67749752D01*
X97521733Y-67892609D01*
X97474114Y-68083085D01*
X97426495Y-68178323D01*
X97331257Y-68273561D01*
X97188400Y-68321180D01*
X96950304Y-68321180D01*
X98378876Y-67321180D02*
X98188400Y-67321180D01*
X98093161Y-67368800D01*
X98045542Y-67416419D01*
X97950304Y-67559276D01*
X97902685Y-67749752D01*
X97902685Y-68130704D01*
X97950304Y-68225942D01*
X97997923Y-68273561D01*
X98093161Y-68321180D01*
X98283638Y-68321180D01*
X98378876Y-68273561D01*
X98426495Y-68225942D01*
X98474114Y-68130704D01*
X98474114Y-67892609D01*
X98426495Y-67797371D01*
X98378876Y-67749752D01*
X98283638Y-67702133D01*
X98093161Y-67702133D01*
X97997923Y-67749752D01*
X97950304Y-67797371D01*
X97902685Y-67892609D01*
X134900942Y-78500266D02*
X134948561Y-78547885D01*
X134996180Y-78690742D01*
X134996180Y-78785980D01*
X134948561Y-78928838D01*
X134853323Y-79024076D01*
X134758085Y-79071695D01*
X134567609Y-79119314D01*
X134424752Y-79119314D01*
X134234276Y-79071695D01*
X134139038Y-79024076D01*
X134043800Y-78928838D01*
X133996180Y-78785980D01*
X133996180Y-78690742D01*
X134043800Y-78547885D01*
X134091419Y-78500266D01*
X133996180Y-77595504D02*
X133996180Y-78071695D01*
X134472371Y-78119314D01*
X134424752Y-78071695D01*
X134377133Y-77976457D01*
X134377133Y-77738361D01*
X134424752Y-77643123D01*
X134472371Y-77595504D01*
X134567609Y-77547885D01*
X134805704Y-77547885D01*
X134900942Y-77595504D01*
X134948561Y-77643123D01*
X134996180Y-77738361D01*
X134996180Y-77976457D01*
X134948561Y-78071695D01*
X134900942Y-78119314D01*
D13*
X93486500Y-86697858D02*
X93486500Y-86223342D01*
X92441500Y-86697858D02*
X92441500Y-86223342D01*
X101923964Y-65375200D02*
X102139636Y-65375200D01*
X101923964Y-66095200D02*
X102139636Y-66095200D01*
X92668036Y-81919400D02*
X92452364Y-81919400D01*
X92668036Y-81199400D02*
X92452364Y-81199400D01*
X109785036Y-57882200D02*
X109569364Y-57882200D01*
X109785036Y-58602200D02*
X109569364Y-58602200D01*
X126218722Y-56819800D02*
X126809500Y-56819800D01*
X115760500Y-53416200D02*
X115760500Y-56819800D01*
X115760500Y-56819800D02*
X116351278Y-56819800D01*
X126809500Y-53416200D02*
X126218722Y-53416200D01*
X126809500Y-56819800D02*
X126809500Y-53416200D01*
X116351278Y-53416200D02*
X115760500Y-53416200D01*
X114363500Y-53738000D02*
G75*
G03*
X114363500Y-53738000I-381000J0D01*
G01*
X97697236Y-76534600D02*
X97481564Y-76534600D01*
X97697236Y-75814600D02*
X97481564Y-75814600D01*
X94873142Y-69712100D02*
X95347658Y-69712100D01*
X94873142Y-68667100D02*
X95347658Y-68667100D01*
X109759636Y-51896600D02*
X109543964Y-51896600D01*
X109759636Y-51176600D02*
X109543964Y-51176600D01*
X106857800Y-52329400D02*
X103407800Y-52329400D01*
X106857800Y-52329400D02*
X108807800Y-52329400D01*
X106857800Y-57449400D02*
X108807800Y-57449400D01*
X106857800Y-57449400D02*
X104907800Y-57449400D01*
X91825942Y-71591700D02*
X92300458Y-71591700D01*
X91825942Y-70546700D02*
X92300458Y-70546700D01*
X124417858Y-50328300D02*
X123943342Y-50328300D01*
X124417858Y-51373300D02*
X123943342Y-51373300D01*
X109586164Y-62611000D02*
X105348649Y-62611000D01*
X105348636Y-69469000D02*
X109586151Y-69469000D01*
G36*
X103555800Y-69155498D02*
G01*
X103301800Y-69155498D01*
X103301800Y-68774498D01*
X103555800Y-68774498D01*
X103555800Y-69155498D01*
G37*
D14*
X103555800Y-69155498D02*
X103301800Y-69155498D01*
X103301800Y-68774498D01*
X103555800Y-68774498D01*
X103555800Y-69155498D01*
G36*
X111633000Y-63305502D02*
G01*
X111379000Y-63305502D01*
X111379000Y-62924502D01*
X111633000Y-62924502D01*
X111633000Y-63305502D01*
G37*
X111633000Y-63305502D02*
X111379000Y-63305502D01*
X111379000Y-62924502D01*
X111633000Y-62924502D01*
X111633000Y-63305502D01*
D13*
X107282858Y-85120700D02*
X106808342Y-85120700D01*
X107282858Y-84075700D02*
X106808342Y-84075700D01*
X95449564Y-81123200D02*
X95665236Y-81123200D01*
X95449564Y-81843200D02*
X95665236Y-81843200D01*
X94771342Y-66736700D02*
X95245858Y-66736700D01*
X94771342Y-67781700D02*
X95245858Y-67781700D01*
X96097400Y-62513600D02*
X94767400Y-62513600D01*
X96097400Y-59913600D02*
X93437400Y-59913600D01*
X93437400Y-59913600D02*
X93437400Y-49693600D01*
X96097400Y-59913600D02*
X96097400Y-49693600D01*
X96097400Y-49693600D02*
X93437400Y-49693600D01*
X96097400Y-61183600D02*
X96097400Y-62513600D01*
X97826600Y-94296000D02*
X97826600Y-99496000D01*
X134716600Y-94296000D02*
X136046600Y-94296000D01*
X133446600Y-94296000D02*
X97826600Y-94296000D01*
X136046600Y-99496000D02*
X97826600Y-99496000D01*
X136046600Y-96896000D02*
X136046600Y-99496000D01*
X136046600Y-94296000D02*
X136046600Y-95626000D01*
X133446600Y-94296000D02*
X133446600Y-96896000D01*
X133446600Y-96896000D02*
X136046600Y-96896000D01*
X127106000Y-74009364D02*
X127106000Y-74225036D01*
X126386000Y-74009364D02*
X126386000Y-74225036D01*
X113218700Y-60879258D02*
X113218700Y-60404742D01*
X114263700Y-60879258D02*
X114263700Y-60404742D01*
X110320858Y-84059500D02*
X109846342Y-84059500D01*
X110320858Y-85104500D02*
X109846342Y-85104500D01*
X91862742Y-68667100D02*
X92337258Y-68667100D01*
X91862742Y-69712100D02*
X92337258Y-69712100D01*
X91805542Y-65999100D02*
X92280058Y-65999100D01*
X91805542Y-64954100D02*
X92280058Y-64954100D01*
X128781400Y-73576200D02*
X128781400Y-79326200D01*
X132381400Y-79326200D02*
X132381400Y-73576200D01*
X128781400Y-79326200D02*
X132381400Y-79326200D01*
X96673400Y-97506900D02*
X96673400Y-99406900D01*
X87273400Y-97506900D02*
X87273400Y-99406900D01*
X96673400Y-93606900D02*
X96673400Y-95606900D01*
X87273400Y-99406900D02*
X96673400Y-99406900D01*
X87273400Y-93606900D02*
X87273400Y-95606900D01*
X110013636Y-71886400D02*
X109797964Y-71886400D01*
X110013636Y-71166400D02*
X109797964Y-71166400D01*
X113442636Y-80725600D02*
X113226964Y-80725600D01*
X113442636Y-80005600D02*
X113226964Y-80005600D01*
X92571440Y-79375000D02*
X92948760Y-79375000D01*
X95897700Y-76631800D02*
X94681040Y-76631800D01*
X95897700Y-79375000D02*
X95897700Y-76631800D01*
X91147900Y-76631800D02*
X91147900Y-79375000D01*
X95571440Y-79375000D02*
X95897700Y-79375000D01*
X92364560Y-76631800D02*
X91147900Y-76631800D01*
X94096840Y-79375000D02*
X94474160Y-79375000D01*
X91147900Y-79375000D02*
X91474160Y-79375000D01*
X90131900Y-79946500D02*
G75*
G03*
X90131900Y-79946500I-127000J0D01*
G01*
X101456436Y-79980200D02*
X101240764Y-79980200D01*
X101456436Y-80700200D02*
X101240764Y-80700200D01*
X91683100Y-86685658D02*
X91683100Y-86211142D01*
X90638100Y-86685658D02*
X90638100Y-86211142D01*
X101223542Y-63489100D02*
X101698058Y-63489100D01*
X101223542Y-62444100D02*
X101698058Y-62444100D01*
X129853458Y-82742300D02*
X129378942Y-82742300D01*
X129853458Y-81697300D02*
X129378942Y-81697300D01*
X133608400Y-74199636D02*
X133608400Y-73983964D01*
X132888400Y-74199636D02*
X132888400Y-73983964D01*
X113059800Y-66071636D02*
X113059800Y-65855964D01*
X112339800Y-66071636D02*
X112339800Y-65855964D01*
X89518800Y-73971000D02*
X86858800Y-73971000D01*
X89518800Y-84251000D02*
X88188800Y-84251000D01*
X89518800Y-81651000D02*
X89518800Y-73971000D01*
X86858800Y-81651000D02*
X86858800Y-73971000D01*
X89518800Y-81651000D02*
X86858800Y-81651000D01*
X89518800Y-82921000D02*
X89518800Y-84251000D01*
X132876058Y-81697300D02*
X132401542Y-81697300D01*
X132876058Y-82742300D02*
X132401542Y-82742300D01*
X114164164Y-70226600D02*
X114379836Y-70226600D01*
X114164164Y-70946600D02*
X114379836Y-70946600D01*
X98998600Y-77622400D02*
X98998600Y-76972400D01*
X102118600Y-77622400D02*
X102118600Y-78272400D01*
X98998600Y-77622400D02*
X98998600Y-79297400D01*
X102118600Y-77622400D02*
X102118600Y-76972400D01*
X94834942Y-66003700D02*
X95309458Y-66003700D01*
X94834942Y-64958700D02*
X95309458Y-64958700D01*
X114382436Y-71293400D02*
X114166764Y-71293400D01*
X114382436Y-72013400D02*
X114166764Y-72013400D01*
X127478200Y-74225036D02*
X127478200Y-74009364D01*
X128198200Y-74225036D02*
X128198200Y-74009364D01*
X127614000Y-77781036D02*
X127614000Y-77565364D01*
X126894000Y-77781036D02*
X126894000Y-77565364D01*
X127245164Y-72826200D02*
X127460836Y-72826200D01*
X127245164Y-72106200D02*
X127460836Y-72106200D01*
X110013636Y-81970200D02*
X109797964Y-81970200D01*
X110013636Y-81250200D02*
X109797964Y-81250200D01*
X94797742Y-71591700D02*
X95272258Y-71591700D01*
X94797742Y-70546700D02*
X95272258Y-70546700D01*
X116507661Y-72580500D02*
X116014500Y-72580500D01*
X116014500Y-72580500D02*
X116014500Y-73073661D01*
X116014500Y-80342339D02*
X116014500Y-80835500D01*
X123776339Y-80835500D02*
X124269500Y-80835500D01*
X124269500Y-80835500D02*
X124269500Y-80342339D01*
X124269500Y-72580500D02*
X123776339Y-72580500D01*
X124269500Y-73073661D02*
X124269500Y-72580500D01*
X116014500Y-80835500D02*
X116507661Y-80835500D01*
G36*
X123132499Y-81521300D02*
G01*
X122751499Y-81521300D01*
X122751499Y-81267300D01*
X123132499Y-81267300D01*
X123132499Y-81521300D01*
G37*
D14*
X123132499Y-81521300D02*
X122751499Y-81521300D01*
X122751499Y-81267300D01*
X123132499Y-81267300D01*
X123132499Y-81521300D01*
G36*
X115582700Y-74498500D02*
G01*
X115328700Y-74498500D01*
X115328700Y-74117500D01*
X115582700Y-74117500D01*
X115582700Y-74498500D01*
G37*
X115582700Y-74498500D02*
X115328700Y-74498500D01*
X115328700Y-74117500D01*
X115582700Y-74117500D01*
X115582700Y-74498500D01*
G36*
X115582700Y-78498499D02*
G01*
X115328700Y-78498499D01*
X115328700Y-78117499D01*
X115582700Y-78117499D01*
X115582700Y-78498499D01*
G37*
X115582700Y-78498499D02*
X115328700Y-78498499D01*
X115328700Y-78117499D01*
X115582700Y-78117499D01*
X115582700Y-78498499D01*
G36*
X119932501Y-72148700D02*
G01*
X119551501Y-72148700D01*
X119551501Y-71894700D01*
X119932501Y-71894700D01*
X119932501Y-72148700D01*
G37*
X119932501Y-72148700D02*
X119551501Y-72148700D01*
X119551501Y-71894700D01*
X119932501Y-71894700D01*
X119932501Y-72148700D01*
G36*
X119132500Y-81521300D02*
G01*
X118751500Y-81521300D01*
X118751500Y-81267300D01*
X119132500Y-81267300D01*
X119132500Y-81521300D01*
G37*
X119132500Y-81521300D02*
X118751500Y-81521300D01*
X118751500Y-81267300D01*
X119132500Y-81267300D01*
X119132500Y-81521300D01*
G36*
X124955300Y-76898500D02*
G01*
X124701300Y-76898500D01*
X124701300Y-76517500D01*
X124955300Y-76517500D01*
X124955300Y-76898500D01*
G37*
X124955300Y-76898500D02*
X124701300Y-76898500D01*
X124701300Y-76517500D01*
X124955300Y-76517500D01*
X124955300Y-76898500D01*
D13*
X86935000Y-64414400D02*
X86935000Y-63084400D01*
X86935000Y-65684400D02*
X86935000Y-73364400D01*
X86935000Y-73364400D02*
X89595000Y-73364400D01*
X86935000Y-65684400D02*
X89595000Y-65684400D01*
X89595000Y-65684400D02*
X89595000Y-73364400D01*
X86935000Y-63084400D02*
X88265000Y-63084400D01*
X103778000Y-74645600D02*
X105038000Y-74645600D01*
X110598000Y-74645600D02*
X109338000Y-74645600D01*
X103778000Y-80655600D02*
X103778000Y-74645600D01*
X110598000Y-78405600D02*
X110598000Y-74645600D01*
X102645800Y-55568964D02*
X102645800Y-55784636D01*
X101925800Y-55568964D02*
X101925800Y-55784636D01*
X113226964Y-79735000D02*
X113442636Y-79735000D01*
X113226964Y-79015000D02*
X113442636Y-79015000D01*
X99561000Y-49390600D02*
X99561000Y-58010600D01*
X96781000Y-49390600D02*
X96781000Y-58010600D01*
X99561000Y-49390600D02*
X96781000Y-49390600D01*
X99561000Y-58010600D02*
X96781000Y-58010600D01*
X91747742Y-66736700D02*
X92222258Y-66736700D01*
X91747742Y-67781700D02*
X92222258Y-67781700D01*
X132939200Y-78517636D02*
X132939200Y-78301964D01*
X133659200Y-78517636D02*
X133659200Y-78301964D01*
%LPC*%
D15*
X92964000Y-87285600D03*
X92964000Y-85635600D03*
D16*
X101551800Y-65735200D03*
X102511800Y-65735200D03*
D17*
X93040200Y-81559400D03*
X92080200Y-81559400D03*
X110157200Y-58242200D03*
X109197200Y-58242200D03*
D18*
X116784999Y-57018000D03*
X117084999Y-53218000D03*
X117385000Y-57018000D03*
X117685000Y-53218000D03*
X117984999Y-57018000D03*
X118284999Y-53218000D03*
X118585000Y-57018000D03*
X118885000Y-53218000D03*
X119184999Y-57018000D03*
X119484999Y-53218000D03*
X119785000Y-57018000D03*
X120085000Y-53218000D03*
X120384999Y-57018000D03*
X120684999Y-53218000D03*
X120985001Y-57018000D03*
X121285001Y-53218000D03*
X121584999Y-57018000D03*
X121884999Y-53218000D03*
X122185001Y-57018000D03*
X122485001Y-53218000D03*
X122785000Y-57018000D03*
X123085000Y-53218000D03*
X123385001Y-57018000D03*
X123685001Y-53218000D03*
X123985000Y-57018000D03*
X124285000Y-53218000D03*
X124585001Y-57018000D03*
X124885001Y-53218000D03*
X125185000Y-57018000D03*
X125485000Y-53218000D03*
X125785001Y-57018000D03*
D17*
X98069400Y-76174600D03*
X97109400Y-76174600D03*
D19*
X94285400Y-69189600D03*
X95935400Y-69189600D03*
D17*
X110131800Y-51536600D03*
X109171800Y-51536600D03*
D20*
X104382800Y-52984400D03*
X104382800Y-54254400D03*
X104382800Y-55524400D03*
X104382800Y-56794400D03*
X109332800Y-56794400D03*
X109332800Y-55524400D03*
X109332800Y-54254400D03*
X109332800Y-52984400D03*
D19*
X91238200Y-71069200D03*
X92888200Y-71069200D03*
D21*
X125005600Y-50850800D03*
X123355600Y-50850800D03*
D22*
X104546400Y-63115000D03*
X104546400Y-63765001D03*
X104546400Y-64414999D03*
X104546400Y-65065001D03*
X104546400Y-65714999D03*
X104546400Y-66364998D03*
X104546400Y-67014999D03*
X104546400Y-67664998D03*
X104546400Y-68314999D03*
X104546400Y-68964998D03*
X110388400Y-68965000D03*
X110388400Y-68315002D03*
X110388400Y-67665001D03*
X110388400Y-67015002D03*
X110388400Y-66365001D03*
X110388400Y-65715002D03*
X110388400Y-65065001D03*
X110388400Y-64415002D03*
X110388400Y-63765001D03*
X110388400Y-63115002D03*
D21*
X107870600Y-84598200D03*
X106220600Y-84598200D03*
D16*
X95077400Y-81483200D03*
X96037400Y-81483200D03*
D19*
X94183600Y-67259200D03*
X95833600Y-67259200D03*
D23*
X94767400Y-61183600D03*
D24*
X94767400Y-58643600D03*
X94767400Y-56103600D03*
X94767400Y-53563600D03*
X94767400Y-51023600D03*
D23*
X134716600Y-95626000D03*
D24*
X134716600Y-98166000D03*
X132176600Y-95626000D03*
X132176600Y-98166000D03*
X129636600Y-95626000D03*
X129636600Y-98166000D03*
X127096600Y-95626000D03*
X127096600Y-98166000D03*
X124556600Y-95626000D03*
X124556600Y-98166000D03*
X122016600Y-95626000D03*
X122016600Y-98166000D03*
X119476600Y-95626000D03*
X119476600Y-98166000D03*
X116936600Y-95626000D03*
X116936600Y-98166000D03*
X114396600Y-95626000D03*
X114396600Y-98166000D03*
X111856600Y-95626000D03*
X111856600Y-98166000D03*
X109316600Y-95626000D03*
X109316600Y-98166000D03*
X106776600Y-95626000D03*
X106776600Y-98166000D03*
X104236600Y-95626000D03*
X104236600Y-98166000D03*
X101696600Y-95626000D03*
X101696600Y-98166000D03*
X99156600Y-95626000D03*
X99156600Y-98166000D03*
D25*
X126746000Y-73637200D03*
X126746000Y-74597200D03*
D15*
X113741200Y-61467000D03*
X113741200Y-59817000D03*
D21*
X110908600Y-84582000D03*
X109258600Y-84582000D03*
D19*
X91275000Y-69189600D03*
X92925000Y-69189600D03*
X91217800Y-65476600D03*
X92867800Y-65476600D03*
D26*
X130581400Y-78126200D03*
X130581400Y-74426200D03*
D27*
X94863400Y-92906900D03*
X89083400Y-92906900D03*
D28*
X88723400Y-91106900D03*
X89523400Y-91106900D03*
D29*
X90723400Y-91106900D03*
X91723400Y-91106900D03*
X92223400Y-91106900D03*
X93223400Y-91106900D03*
D28*
X94423400Y-91106900D03*
X95223400Y-91106900D03*
X95223400Y-91106900D03*
D30*
X94423400Y-91106900D03*
D29*
X93723400Y-91106900D03*
X92723400Y-91106900D03*
X91223400Y-91106900D03*
X90223400Y-91106900D03*
D30*
X89523400Y-91106900D03*
X88723400Y-91006900D03*
D31*
X96293400Y-96556900D03*
D32*
X96293400Y-92376900D03*
X87653400Y-92376900D03*
D31*
X87653400Y-96556900D03*
D17*
X110385800Y-71526400D03*
X109425800Y-71526400D03*
X113814800Y-80365600D03*
X112854800Y-80365600D03*
D33*
X92022800Y-79844900D03*
D34*
X93522800Y-76733400D03*
D35*
X93522800Y-79844900D03*
D33*
X95022800Y-79844900D03*
D17*
X101828600Y-80340200D03*
X100868600Y-80340200D03*
D15*
X91160600Y-87273400D03*
X91160600Y-85623400D03*
D19*
X100635800Y-62966600D03*
X102285800Y-62966600D03*
D21*
X130441200Y-82219800D03*
X128791200Y-82219800D03*
D36*
X133248400Y-74571800D03*
X133248400Y-73611800D03*
X112699800Y-66443800D03*
X112699800Y-65483800D03*
D23*
X88188800Y-82921000D03*
D24*
X88188800Y-80381000D03*
X88188800Y-77841000D03*
X88188800Y-75301000D03*
D21*
X133463800Y-82219800D03*
X131813800Y-82219800D03*
D16*
X113792000Y-70586600D03*
X114752000Y-70586600D03*
D37*
X99608600Y-78559900D03*
X101508600Y-78559900D03*
X100558600Y-76684900D03*
D19*
X94247200Y-65481200D03*
X95897200Y-65481200D03*
D17*
X114754600Y-71653400D03*
X113794600Y-71653400D03*
D36*
X127838200Y-74597200D03*
X127838200Y-73637200D03*
X127254000Y-78153200D03*
X127254000Y-77193200D03*
D16*
X126873000Y-72466200D03*
X127833000Y-72466200D03*
D17*
X110385800Y-81610200D03*
X109425800Y-81610200D03*
D19*
X94210000Y-71069200D03*
X95860000Y-71069200D03*
D38*
X123341999Y-72783700D03*
X122941999Y-72783700D03*
X122542000Y-72783700D03*
X122142001Y-72783700D03*
X121741999Y-72783700D03*
X121342000Y-72783700D03*
X120942001Y-72783700D03*
X120541999Y-72783700D03*
X120142000Y-72783700D03*
X119742001Y-72783700D03*
X119341999Y-72783700D03*
X118942000Y-72783700D03*
X118542001Y-72783700D03*
X118142001Y-72783700D03*
X117742000Y-72783700D03*
X117342001Y-72783700D03*
X116942001Y-72783700D03*
D39*
X116217700Y-73508001D03*
X116217700Y-73908001D03*
X116217700Y-74308000D03*
X116217700Y-74708001D03*
X116217700Y-75108001D03*
X116217700Y-75508000D03*
X116217700Y-75907999D03*
X116217700Y-76308001D03*
X116217700Y-76708000D03*
X116217700Y-77107999D03*
X116217700Y-77508001D03*
X116217700Y-77908000D03*
X116217700Y-78307999D03*
X116217700Y-78707999D03*
X116217700Y-79108000D03*
X116217700Y-79507999D03*
X116217700Y-79907999D03*
D38*
X116942001Y-80632300D03*
X117342001Y-80632300D03*
X117742000Y-80632300D03*
X118142001Y-80632300D03*
X118542001Y-80632300D03*
X118942000Y-80632300D03*
X119341999Y-80632300D03*
X119742001Y-80632300D03*
X120142000Y-80632300D03*
X120541999Y-80632300D03*
X120942001Y-80632300D03*
X121342000Y-80632300D03*
X121741999Y-80632300D03*
X122141999Y-80632300D03*
X122542000Y-80632300D03*
X122941999Y-80632300D03*
X123341999Y-80632300D03*
D39*
X124066300Y-79907999D03*
X124066300Y-79507999D03*
X124066300Y-79108000D03*
X124066300Y-78707999D03*
X124066300Y-78307999D03*
X124066300Y-77908000D03*
X124066300Y-77508001D03*
X124066300Y-77107999D03*
X124066300Y-76708000D03*
X124066300Y-76308001D03*
X124066300Y-75907999D03*
X124066300Y-75508000D03*
X124066300Y-75108001D03*
X124066300Y-74708001D03*
X124066300Y-74308000D03*
X124066300Y-73908001D03*
X124066300Y-73508001D03*
D40*
X120142000Y-76708000D03*
D23*
X88265000Y-64414400D03*
D24*
X88265000Y-66954400D03*
X88265000Y-69494400D03*
X88265000Y-72034400D03*
D41*
X104888000Y-79705600D03*
X107188000Y-79705600D03*
D42*
X107188000Y-73405600D03*
D41*
X109488000Y-79705600D03*
D25*
X102285800Y-55196800D03*
X102285800Y-56156800D03*
D16*
X112854800Y-79375000D03*
X113814800Y-79375000D03*
D43*
X98171000Y-51160600D03*
X98171000Y-56240600D03*
D19*
X91160000Y-67259200D03*
X92810000Y-67259200D03*
D36*
X133299200Y-78889800D03*
X133299200Y-77929800D03*
M02*
