M48
; DRILL file {KiCad (6.0.7-1)-1} date 2022 November 08, Tuesday 18:33:44
; FORMAT={-:-/ absolute / metric / decimal}
; #@! TF.CreationDate,2022-11-08T18:33:44+08:00
; #@! TF.GenerationSoftware,Kicad,Pcbnew,(6.0.7-1)-1
; #@! TF.FileFunction,Plated,1,2,PTH
FMAT,2
METRIC
; #@! TA.AperFunction,Plated,PTH,ViaDrill
T1C0.305
; #@! TA.AperFunction,Plated,PTH,ComponentDrill
T2C0.600
; #@! TA.AperFunction,Plated,PTH,ComponentDrill
T3C0.800
; #@! TA.AperFunction,Plated,PTH,ComponentDrill
T4C1.000
%
G90
G05
T1
X91.11Y-80.645
X91.211Y-82.293
X93.624Y-74.803
X97.206Y-77.749
X97.333Y-64.11
X97.866Y-67.513
X98.069Y-70.231
X98.171Y-64.922
X98.552Y-78.994
X98.603Y-85.217
X100.94Y-71.806
X102.616Y-93.142
X102.984Y-81.496
X103.556Y-85.014
X105.74Y-57.861
X105.791Y-69.875
X106.248Y-68.275
X106.68Y-77.826
X107.62Y-81.788
X107.645Y-58.75
X107.848Y-71.323
X108.306Y-66.446
X110.033Y-73.381
X110.973Y-75.133
X111.259Y-78.892
X111.404Y-76.352
X111.658Y-55.626
X111.76Y-69.342
X111.862Y-67.793
X111.912Y-53.873
X111.938Y-51.511
X112.039Y-65.684
X112.141Y-60.935
X112.243Y-77.191
X112.446Y-54.966
X112.598Y-88.519
X113.03Y-78.562
X113.157Y-67.158
X113.386Y-68.885
X113.462Y-54.661
X114.021Y-63.551
X114.681Y-52.629
X114.783Y-78.892
X114.833Y-57.658
X114.833Y-74.016
X114.884Y-79.864
X115.189Y-68.555
X115.367Y-81.077
X115.595Y-53.213
X115.621Y-70.764
X115.799Y-56.972
X116.155Y-72.019
X117.704Y-54.61
X118.11Y-77.622
X118.135Y-69.088
X118.161Y-67.755
X118.262Y-63.729
X118.834Y-67.081
X119.49Y-69.226
X120.32Y-50.749
X120.523Y-54.674
X120.54Y-69.226
X120.675Y-92.126
X120.714Y-86.097
X120.752Y-59.233
X120.904Y-55.626
X121.006Y-66.802
X121.689Y-65.131
X121.739Y-62.586
X121.856Y-55.626
X121.92Y-78.511
X122.03Y-70.358
X122.219Y-54.655
X122.403Y-51.613
X123.08Y-70.358
X123.114Y-75.209
X123.508Y-55.626
X123.571Y-90.297
X123.622Y-61.011
X123.952Y-54.707
X124.054Y-69.418
X124.181Y-58.572
X124.841Y-55.593
X124.993Y-74.308
X125.078Y-70.007
X125.269Y-54.69
X125.527Y-72.796
X125.882Y-74.778
X126.128Y-70.007
X126.213Y-77.165
X126.517Y-51.765
X126.619Y-54.674
X127.0Y-55.626
X127.062Y-60.944
X127.491Y-61.794
X127.813Y-79.375
X127.914Y-69.926
X128.219Y-55.118
X128.541Y-61.794
X129.21Y-67.107
X130.251Y-52.273
X131.064Y-61.925
X132.334Y-89.789
X133.248Y-80.264
T3
X98.171Y-51.161
X98.171Y-56.241
T4
X88.189Y-75.301
X88.189Y-77.841
X88.189Y-80.381
X88.189Y-82.921
X88.265Y-64.414
X88.265Y-66.954
X88.265Y-69.494
X88.265Y-72.034
X94.767Y-51.024
X94.767Y-53.564
X94.767Y-56.104
X94.767Y-58.644
X94.767Y-61.184
X99.157Y-95.626
X99.157Y-98.166
X101.697Y-95.626
X101.697Y-98.166
X104.237Y-95.626
X104.237Y-98.166
X106.777Y-95.626
X106.777Y-98.166
X109.317Y-95.626
X109.317Y-98.166
X111.857Y-95.626
X111.857Y-98.166
X114.397Y-95.626
X114.397Y-98.166
X116.937Y-95.626
X116.937Y-98.166
X119.477Y-95.626
X119.477Y-98.166
X122.017Y-95.626
X122.017Y-98.166
X124.557Y-95.626
X124.557Y-98.166
X127.097Y-95.626
X127.097Y-98.166
X129.637Y-95.626
X129.637Y-98.166
X132.177Y-95.626
X132.177Y-98.166
X134.717Y-95.626
X134.717Y-98.166
T2
G00X87.653Y-91.827
M15
G01X87.653Y-92.927
M16
G05
G00X87.653Y-96.257
M15
G01X87.653Y-96.857
M16
G05
G00X96.293Y-91.827
M15
G01X96.293Y-92.927
M16
G05
G00X96.293Y-96.257
M15
G01X96.293Y-96.857
M16
G05
T0
M30
