G04 #@! TF.GenerationSoftware,KiCad,Pcbnew,(6.0.7-1)-1*
G04 #@! TF.CreationDate,2022-11-08T18:33:53+08:00*
G04 #@! TF.ProjectId,sharp_dsi,73686172-705f-4647-9369-2e6b69636164,rev?*
G04 #@! TF.SameCoordinates,Original*
G04 #@! TF.FileFunction,Soldermask,Top*
G04 #@! TF.FilePolarity,Negative*
%FSLAX46Y46*%
G04 Gerber Fmt 4.6, Leading zero omitted, Abs format (unit mm)*
G04 Created by KiCad (PCBNEW (6.0.7-1)-1) date 2022-11-08 18:33:53*
%MOMM*%
%LPD*%
G01*
G04 APERTURE LIST*
G04 Aperture macros list*
%AMRoundRect*
0 Rectangle with rounded corners*
0 $1 Rounding radius*
0 $2 $3 $4 $5 $6 $7 $8 $9 X,Y pos of 4 corners*
0 Add a 4 corners polygon primitive as box body*
4,1,4,$2,$3,$4,$5,$6,$7,$8,$9,$2,$3,0*
0 Add four circle primitives for the rounded corners*
1,1,$1+$1,$2,$3*
1,1,$1+$1,$4,$5*
1,1,$1+$1,$6,$7*
1,1,$1+$1,$8,$9*
0 Add four rect primitives between the rounded corners*
20,1,$1+$1,$2,$3,$4,$5,0*
20,1,$1+$1,$4,$5,$6,$7,0*
20,1,$1+$1,$6,$7,$8,$9,0*
20,1,$1+$1,$8,$9,$2,$3,0*%
%AMFreePoly0*
4,1,5,0.762000,-0.762000,-0.762000,-0.762000,-0.762000,0.762000,0.762000,0.762000,0.762000,-0.762000,0.762000,-0.762000,$1*%
G04 Aperture macros list end*
%ADD10RoundRect,0.200000X0.275000X-0.200000X0.275000X0.200000X-0.275000X0.200000X-0.275000X-0.200000X0*%
%ADD11RoundRect,0.140000X-0.140000X-0.170000X0.140000X-0.170000X0.140000X0.170000X-0.140000X0.170000X0*%
%ADD12RoundRect,0.140000X0.140000X0.170000X-0.140000X0.170000X-0.140000X-0.170000X0.140000X-0.170000X0*%
%ADD13R,0.350000X1.500000*%
%ADD14RoundRect,0.200000X-0.200000X-0.275000X0.200000X-0.275000X0.200000X0.275000X-0.200000X0.275000X0*%
%ADD15RoundRect,0.150000X-0.825000X-0.150000X0.825000X-0.150000X0.825000X0.150000X-0.825000X0.150000X0*%
%ADD16RoundRect,0.200000X0.200000X0.275000X-0.200000X0.275000X-0.200000X-0.275000X0.200000X-0.275000X0*%
%ADD17R,1.473200X0.355600*%
%ADD18R,1.700000X1.700000*%
%ADD19O,1.700000X1.700000*%
%ADD20RoundRect,0.140000X-0.170000X0.140000X-0.170000X-0.140000X0.170000X-0.140000X0.170000X0.140000X0*%
%ADD21R,2.400000X2.000000*%
%ADD22C,0.650000*%
%ADD23R,0.600000X2.000000*%
%ADD24R,0.300000X2.000000*%
%ADD25R,0.600000X1.450000*%
%ADD26O,1.000000X1.600000*%
%ADD27O,1.000000X2.100000*%
%ADD28R,0.431800X1.193800*%
%ADD29FreePoly0,0.000000*%
%ADD30R,0.482600X1.193800*%
%ADD31RoundRect,0.140000X0.170000X-0.140000X0.170000X0.140000X-0.170000X0.140000X-0.170000X-0.140000X0*%
%ADD32RoundRect,0.150000X0.150000X-0.587500X0.150000X0.587500X-0.150000X0.587500X-0.150000X-0.587500X0*%
%ADD33R,0.203200X0.762000*%
%ADD34R,0.762000X0.203200*%
%ADD35R,4.699000X4.699000*%
%ADD36R,1.500000X2.000000*%
%ADD37R,3.800000X2.000000*%
%ADD38C,1.600000*%
G04 APERTURE END LIST*
D10*
X92964000Y-87285600D03*
X92964000Y-85635600D03*
D11*
X101551800Y-65735200D03*
X102511800Y-65735200D03*
D12*
X93040200Y-81559400D03*
X92080200Y-81559400D03*
X110157200Y-58242200D03*
X109197200Y-58242200D03*
D13*
X116784999Y-57018000D03*
X117084999Y-53218000D03*
X117385000Y-57018000D03*
X117685000Y-53218000D03*
X117984999Y-57018000D03*
X118284999Y-53218000D03*
X118585000Y-57018000D03*
X118885000Y-53218000D03*
X119184999Y-57018000D03*
X119484999Y-53218000D03*
X119785000Y-57018000D03*
X120085000Y-53218000D03*
X120384999Y-57018000D03*
X120684999Y-53218000D03*
X120985001Y-57018000D03*
X121285001Y-53218000D03*
X121584999Y-57018000D03*
X121884999Y-53218000D03*
X122185001Y-57018000D03*
X122485001Y-53218000D03*
X122785000Y-57018000D03*
X123085000Y-53218000D03*
X123385001Y-57018000D03*
X123685001Y-53218000D03*
X123985000Y-57018000D03*
X124285000Y-53218000D03*
X124585001Y-57018000D03*
X124885001Y-53218000D03*
X125185000Y-57018000D03*
X125485000Y-53218000D03*
X125785001Y-57018000D03*
D12*
X98069400Y-76174600D03*
X97109400Y-76174600D03*
D14*
X94285400Y-69189600D03*
X95935400Y-69189600D03*
D12*
X110131800Y-51536600D03*
X109171800Y-51536600D03*
D15*
X104382800Y-52984400D03*
X104382800Y-54254400D03*
X104382800Y-55524400D03*
X104382800Y-56794400D03*
X109332800Y-56794400D03*
X109332800Y-55524400D03*
X109332800Y-54254400D03*
X109332800Y-52984400D03*
D14*
X91238200Y-71069200D03*
X92888200Y-71069200D03*
D16*
X125005600Y-50850800D03*
X123355600Y-50850800D03*
D17*
X104546400Y-63115000D03*
X104546400Y-63765001D03*
X104546400Y-64414999D03*
X104546400Y-65065001D03*
X104546400Y-65714999D03*
X104546400Y-66364998D03*
X104546400Y-67014999D03*
X104546400Y-67664998D03*
X104546400Y-68314999D03*
X104546400Y-68964998D03*
X110388400Y-68965000D03*
X110388400Y-68315002D03*
X110388400Y-67665001D03*
X110388400Y-67015002D03*
X110388400Y-66365001D03*
X110388400Y-65715002D03*
X110388400Y-65065001D03*
X110388400Y-64415002D03*
X110388400Y-63765001D03*
X110388400Y-63115002D03*
D16*
X107870600Y-84598200D03*
X106220600Y-84598200D03*
D11*
X95077400Y-81483200D03*
X96037400Y-81483200D03*
D14*
X94183600Y-67259200D03*
X95833600Y-67259200D03*
D18*
X94767400Y-61183600D03*
D19*
X94767400Y-58643600D03*
X94767400Y-56103600D03*
X94767400Y-53563600D03*
X94767400Y-51023600D03*
D18*
X134716600Y-95626000D03*
D19*
X134716600Y-98166000D03*
X132176600Y-95626000D03*
X132176600Y-98166000D03*
X129636600Y-95626000D03*
X129636600Y-98166000D03*
X127096600Y-95626000D03*
X127096600Y-98166000D03*
X124556600Y-95626000D03*
X124556600Y-98166000D03*
X122016600Y-95626000D03*
X122016600Y-98166000D03*
X119476600Y-95626000D03*
X119476600Y-98166000D03*
X116936600Y-95626000D03*
X116936600Y-98166000D03*
X114396600Y-95626000D03*
X114396600Y-98166000D03*
X111856600Y-95626000D03*
X111856600Y-98166000D03*
X109316600Y-95626000D03*
X109316600Y-98166000D03*
X106776600Y-95626000D03*
X106776600Y-98166000D03*
X104236600Y-95626000D03*
X104236600Y-98166000D03*
X101696600Y-95626000D03*
X101696600Y-98166000D03*
X99156600Y-95626000D03*
X99156600Y-98166000D03*
D20*
X126746000Y-73637200D03*
X126746000Y-74597200D03*
D10*
X113741200Y-61467000D03*
X113741200Y-59817000D03*
D16*
X110908600Y-84582000D03*
X109258600Y-84582000D03*
D14*
X91275000Y-69189600D03*
X92925000Y-69189600D03*
X91217800Y-65476600D03*
X92867800Y-65476600D03*
D21*
X130581400Y-78126200D03*
X130581400Y-74426200D03*
D22*
X94863400Y-92906900D03*
X89083400Y-92906900D03*
D23*
X88723400Y-91106900D03*
X89523400Y-91106900D03*
D24*
X90723400Y-91106900D03*
X91723400Y-91106900D03*
X92223400Y-91106900D03*
X93223400Y-91106900D03*
D23*
X94423400Y-91106900D03*
X95223400Y-91106900D03*
X95223400Y-91106900D03*
D25*
X94423400Y-91106900D03*
D24*
X93723400Y-91106900D03*
X92723400Y-91106900D03*
X91223400Y-91106900D03*
X90223400Y-91106900D03*
D25*
X89523400Y-91106900D03*
X88723400Y-91006900D03*
D26*
X96293400Y-96556900D03*
D27*
X96293400Y-92376900D03*
X87653400Y-92376900D03*
D26*
X87653400Y-96556900D03*
D12*
X110385800Y-71526400D03*
X109425800Y-71526400D03*
X113814800Y-80365600D03*
X112854800Y-80365600D03*
D28*
X92022800Y-79844900D03*
D29*
X93522800Y-76733400D03*
D30*
X93522800Y-79844900D03*
D28*
X95022800Y-79844900D03*
D12*
X101828600Y-80340200D03*
X100868600Y-80340200D03*
D10*
X91160600Y-87273400D03*
X91160600Y-85623400D03*
D14*
X100635800Y-62966600D03*
X102285800Y-62966600D03*
D16*
X130441200Y-82219800D03*
X128791200Y-82219800D03*
D31*
X133248400Y-74571800D03*
X133248400Y-73611800D03*
X112699800Y-66443800D03*
X112699800Y-65483800D03*
D18*
X88188800Y-82921000D03*
D19*
X88188800Y-80381000D03*
X88188800Y-77841000D03*
X88188800Y-75301000D03*
D16*
X133463800Y-82219800D03*
X131813800Y-82219800D03*
D11*
X113792000Y-70586600D03*
X114752000Y-70586600D03*
D32*
X99608600Y-78559900D03*
X101508600Y-78559900D03*
X100558600Y-76684900D03*
D14*
X94247200Y-65481200D03*
X95897200Y-65481200D03*
D12*
X114754600Y-71653400D03*
X113794600Y-71653400D03*
D31*
X127838200Y-74597200D03*
X127838200Y-73637200D03*
X127254000Y-78153200D03*
X127254000Y-77193200D03*
D11*
X126873000Y-72466200D03*
X127833000Y-72466200D03*
D12*
X110385800Y-81610200D03*
X109425800Y-81610200D03*
D14*
X94210000Y-71069200D03*
X95860000Y-71069200D03*
D33*
X123341999Y-72783700D03*
X122941999Y-72783700D03*
X122542000Y-72783700D03*
X122142001Y-72783700D03*
X121741999Y-72783700D03*
X121342000Y-72783700D03*
X120942001Y-72783700D03*
X120541999Y-72783700D03*
X120142000Y-72783700D03*
X119742001Y-72783700D03*
X119341999Y-72783700D03*
X118942000Y-72783700D03*
X118542001Y-72783700D03*
X118142001Y-72783700D03*
X117742000Y-72783700D03*
X117342001Y-72783700D03*
X116942001Y-72783700D03*
D34*
X116217700Y-73508001D03*
X116217700Y-73908001D03*
X116217700Y-74308000D03*
X116217700Y-74708001D03*
X116217700Y-75108001D03*
X116217700Y-75508000D03*
X116217700Y-75907999D03*
X116217700Y-76308001D03*
X116217700Y-76708000D03*
X116217700Y-77107999D03*
X116217700Y-77508001D03*
X116217700Y-77908000D03*
X116217700Y-78307999D03*
X116217700Y-78707999D03*
X116217700Y-79108000D03*
X116217700Y-79507999D03*
X116217700Y-79907999D03*
D33*
X116942001Y-80632300D03*
X117342001Y-80632300D03*
X117742000Y-80632300D03*
X118142001Y-80632300D03*
X118542001Y-80632300D03*
X118942000Y-80632300D03*
X119341999Y-80632300D03*
X119742001Y-80632300D03*
X120142000Y-80632300D03*
X120541999Y-80632300D03*
X120942001Y-80632300D03*
X121342000Y-80632300D03*
X121741999Y-80632300D03*
X122141999Y-80632300D03*
X122542000Y-80632300D03*
X122941999Y-80632300D03*
X123341999Y-80632300D03*
D34*
X124066300Y-79907999D03*
X124066300Y-79507999D03*
X124066300Y-79108000D03*
X124066300Y-78707999D03*
X124066300Y-78307999D03*
X124066300Y-77908000D03*
X124066300Y-77508001D03*
X124066300Y-77107999D03*
X124066300Y-76708000D03*
X124066300Y-76308001D03*
X124066300Y-75907999D03*
X124066300Y-75508000D03*
X124066300Y-75108001D03*
X124066300Y-74708001D03*
X124066300Y-74308000D03*
X124066300Y-73908001D03*
X124066300Y-73508001D03*
D35*
X120142000Y-76708000D03*
D18*
X88265000Y-64414400D03*
D19*
X88265000Y-66954400D03*
X88265000Y-69494400D03*
X88265000Y-72034400D03*
D36*
X104888000Y-79705600D03*
X107188000Y-79705600D03*
D37*
X107188000Y-73405600D03*
D36*
X109488000Y-79705600D03*
D20*
X102285800Y-55196800D03*
X102285800Y-56156800D03*
D11*
X112854800Y-79375000D03*
X113814800Y-79375000D03*
D38*
X98171000Y-51160600D03*
X98171000Y-56240600D03*
D14*
X91160000Y-67259200D03*
X92810000Y-67259200D03*
D31*
X133299200Y-78889800D03*
X133299200Y-77929800D03*
M02*
